<svg width="852" height="352.0" xmlns="http://www.w3.org/2000/svg">
  <defs>
    <linearGradient id="keycap-border" x1="0%" y1="0%" x2="0%" y2="100%">
      <stop offset="0%" stop-color="#fefefe" />
      <stop offset="100%" stop-color="#c4c4c4" />
    </linearGradient>
  </defs>
  <g transform="translate(0, 18.75)">
    <rect stroke-width="2" stroke="#272727" fill="#ccc" rx="5" width="50" height="50" />
  </g>
  <g transform="translate(50, 18.75)">
    <rect rx="5" stroke-width="2" stroke="#272727" fill="url(#keycap-border)" width="50" height="50" />
    <rect style="fill:#ececec;stroke-width:2" rx="5" x="3" y="3" width="44" height="44" />
    <text style="font-size:14px;color:#272727;font-family:'Helvetica', 'Arial', sans-serif;text-anchor:middle;dominant-baseline:middle" x="25.0" y="25.0">1</text>
  </g>
  <g transform="translate(100, 6.25)">
    <rect rx="5" stroke-width="2" stroke="#272727" fill="url(#keycap-border)" width="50" height="50" />
    <rect style="fill:#ececec;stroke-width:2" rx="5" x="3" y="3" width="44" height="44" />
    <text style="font-size:14px;color:#272727;font-family:'Helvetica', 'Arial', sans-serif;text-anchor:middle;dominant-baseline:middle" x="25.0" y="25.0">2</text>
  </g>
  <g transform="translate(150, 0)">
    <rect rx="5" stroke-width="2" stroke="#272727" fill="url(#keycap-border)" width="50" height="50" />
    <rect style="fill:#ececec;stroke-width:2" rx="5" x="3" y="3" width="44" height="44" />
    <text style="font-size:14px;color:#272727;font-family:'Helvetica', 'Arial', sans-serif;text-anchor:middle;dominant-baseline:middle" x="25.0" y="25.0">3</text>
  </g>
  <g transform="translate(200, 6.25)">
    <rect rx="5" stroke-width="2" stroke="#272727" fill="url(#keycap-border)" width="50" height="50" />
    <rect style="fill:#ececec;stroke-width:2" rx="5" x="3" y="3" width="44" height="44" />
    <text style="font-size:14px;color:#272727;font-family:'Helvetica', 'Arial', sans-serif;text-anchor:middle;dominant-baseline:middle" x="25.0" y="25.0">4</text>
  </g>
  <g transform="translate(250, 12.5)">
    <rect rx="5" stroke-width="2" stroke="#272727" fill="url(#keycap-border)" width="50" height="50" />
    <rect style="fill:#ececec;stroke-width:2" rx="5" x="3" y="3" width="44" height="44" />
    <text style="font-size:14px;color:#272727;font-family:'Helvetica', 'Arial', sans-serif;text-anchor:middle;dominant-baseline:middle" x="25.0" y="25.0">5</text>
  </g>
  <g transform="translate(300, 12.5)">
    <rect stroke-width="2" stroke="#272727" fill="#ccc" rx="5" width="50" height="50" />
  </g>
  <g transform="translate(500, 12.5)">
    <rect stroke-width="2" stroke="#272727" fill="#ccc" rx="5" width="50" height="50" />
  </g>
  <g transform="translate(550, 12.5)">
    <rect rx="5" stroke-width="2" stroke="#272727" fill="url(#keycap-border)" width="50" height="50" />
    <rect style="fill:#ececec;stroke-width:2" rx="5" x="3" y="3" width="44" height="44" />
    <text style="font-size:14px;color:#272727;font-family:'Helvetica', 'Arial', sans-serif;text-anchor:middle;dominant-baseline:middle" x="25.0" y="25.0">6</text>
  </g>
  <g transform="translate(600, 6.25)">
    <rect rx="5" stroke-width="2" stroke="#272727" fill="url(#keycap-border)" width="50" height="50" />
    <rect style="fill:#ececec;stroke-width:2" rx="5" x="3" y="3" width="44" height="44" />
    <text style="font-size:14px;color:#272727;font-family:'Helvetica', 'Arial', sans-serif;text-anchor:middle;dominant-baseline:middle" x="25.0" y="25.0">7</text>
  </g>
  <g transform="translate(650, 0)">
    <rect rx="5" stroke-width="2" stroke="#272727" fill="url(#keycap-border)" width="50" height="50" />
    <rect style="fill:#ececec;stroke-width:2" rx="5" x="3" y="3" width="44" height="44" />
    <text style="font-size:14px;color:#272727;font-family:'Helvetica', 'Arial', sans-serif;text-anchor:middle;dominant-baseline:middle" x="25.0" y="25.0">8</text>
  </g>
  <g transform="translate(700, 6.25)">
    <rect rx="5" stroke-width="2" stroke="#272727" fill="url(#keycap-border)" width="50" height="50" />
    <rect style="fill:#ececec;stroke-width:2" rx="5" x="3" y="3" width="44" height="44" />
    <text style="font-size:14px;color:#272727;font-family:'Helvetica', 'Arial', sans-serif;text-anchor:middle;dominant-baseline:middle" x="25.0" y="25.0">9</text>
  </g>
  <g transform="translate(750, 18.75)">
    <rect rx="5" stroke-width="2" stroke="#272727" fill="url(#keycap-border)" width="50" height="50" />
    <rect style="fill:#ececec;stroke-width:2" rx="5" x="3" y="3" width="44" height="44" />
    <text style="font-size:14px;color:#272727;font-family:'Helvetica', 'Arial', sans-serif;text-anchor:middle;dominant-baseline:middle" x="25.0" y="25.0">0</text>
  </g>
  <g transform="translate(800, 18.75)">
    <rect stroke-width="2" stroke="#272727" fill="#ccc" rx="5" width="50" height="50" />
  </g>
  <g transform="translate(0, 68.75)">
    <rect stroke-width="2" stroke="#272727" fill="#ccc" rx="5" width="50" height="50" />
  </g>
  <g transform="translate(50, 68.75)">
    <rect rx="5" stroke-width="2" stroke="#272727" fill="url(#keycap-border)" width="50" height="50" />
    <rect style="fill:#ececec;stroke-width:2" rx="5" x="3" y="3" width="44" height="44" />
    <text style="font-size:14px;color:#272727;font-family:'Helvetica', 'Arial', sans-serif;text-anchor:middle;dominant-baseline:middle" x="25.0" y="25.0">Q</text>
  </g>
  <g transform="translate(100, 56.25)">
    <rect rx="5" stroke-width="2" stroke="#272727" fill="url(#keycap-border)" width="50" height="50" />
    <rect style="fill:#ececec;stroke-width:2" rx="5" x="3" y="3" width="44" height="44" />
    <text style="font-size:14px;color:#272727;font-family:'Helvetica', 'Arial', sans-serif;text-anchor:middle;dominant-baseline:middle" x="25.0" y="25.0">W</text>
  </g>
  <g transform="translate(150, 50)">
    <rect rx="5" stroke-width="2" stroke="#272727" fill="url(#keycap-border)" width="50" height="50" />
    <rect style="fill:#ececec;stroke-width:2" rx="5" x="3" y="3" width="44" height="44" />
    <text style="font-size:14px;color:#272727;font-family:'Helvetica', 'Arial', sans-serif;text-anchor:middle;dominant-baseline:middle" x="25.0" y="25.0">E</text>
  </g>
  <g transform="translate(200, 56.25)">
    <rect rx="5" stroke-width="2" stroke="#272727" fill="url(#keycap-border)" width="50" height="50" />
    <rect style="fill:#ececec;stroke-width:2" rx="5" x="3" y="3" width="44" height="44" />
    <text style="font-size:14px;color:#272727;font-family:'Helvetica', 'Arial', sans-serif;text-anchor:middle;dominant-baseline:middle" x="25.0" y="25.0">R</text>
  </g>
  <g transform="translate(250, 62.5)">
    <rect rx="5" stroke-width="2" stroke="#272727" fill="url(#keycap-border)" width="50" height="50" />
    <rect style="fill:#ececec;stroke-width:2" rx="5" x="3" y="3" width="44" height="44" />
    <text style="font-size:14px;color:#272727;font-family:'Helvetica', 'Arial', sans-serif;text-anchor:middle;dominant-baseline:middle" x="25.0" y="25.0">T</text>
  </g>
  <g transform="translate(300, 62.5)">
    <rect stroke-width="2" stroke="#272727" fill="#ccc" rx="5" width="50" height="50" />
  </g>
  <g transform="translate(500, 62.5)">
    <rect stroke-width="2" stroke="#272727" fill="#ccc" rx="5" width="50" height="50" />
  </g>
  <g transform="translate(550, 62.5)">
    <rect rx="5" stroke-width="2" stroke="#272727" fill="url(#keycap-border)" width="50" height="50" />
    <rect style="fill:#ececec;stroke-width:2" rx="5" x="3" y="3" width="44" height="44" />
    <text style="font-size:14px;color:#272727;font-family:'Helvetica', 'Arial', sans-serif;text-anchor:middle;dominant-baseline:middle" x="25.0" y="25.0">Y</text>
  </g>
  <g transform="translate(600, 56.25)">
    <rect rx="5" stroke-width="2" stroke="#272727" fill="url(#keycap-border)" width="50" height="50" />
    <rect style="fill:#ececec;stroke-width:2" rx="5" x="3" y="3" width="44" height="44" />
    <text style="font-size:14px;color:#272727;font-family:'Helvetica', 'Arial', sans-serif;text-anchor:middle;dominant-baseline:middle" x="25.0" y="25.0">U</text>
  </g>
  <g transform="translate(650, 50)">
    <rect rx="5" stroke-width="2" stroke="#272727" fill="url(#keycap-border)" width="50" height="50" />
    <rect style="fill:#ececec;stroke-width:2" rx="5" x="3" y="3" width="44" height="44" />
    <text style="font-size:14px;color:#272727;font-family:'Helvetica', 'Arial', sans-serif;text-anchor:middle;dominant-baseline:middle" x="25.0" y="25.0">I</text>
  </g>
  <g transform="translate(700, 56.25)">
    <rect rx="5" stroke-width="2" stroke="#272727" fill="url(#keycap-border)" width="50" height="50" />
    <rect style="fill:#ececec;stroke-width:2" rx="5" x="3" y="3" width="44" height="44" />
    <text style="font-size:14px;color:#272727;font-family:'Helvetica', 'Arial', sans-serif;text-anchor:middle;dominant-baseline:middle" x="25.0" y="25.0">O</text>
  </g>
  <g transform="translate(750, 68.75)">
    <rect rx="5" stroke-width="2" stroke="#272727" fill="url(#keycap-border)" width="50" height="50" />
    <rect style="fill:#ececec;stroke-width:2" rx="5" x="3" y="3" width="44" height="44" />
    <text style="font-size:14px;color:#272727;font-family:'Helvetica', 'Arial', sans-serif;text-anchor:middle;dominant-baseline:middle" x="25.0" y="25.0">P</text>
  </g>
  <g transform="translate(800, 68.75)">
    <rect stroke-width="2" stroke="#272727" fill="#ccc" rx="5" width="50" height="50" />
  </g>
  <g transform="translate(0, 118.75)">
    <rect rx="5" stroke-width="2" stroke="#272727" fill="url(#keycap-border)" width="50" height="50" />
    <rect style="fill:#ececec;stroke-width:2" rx="5" x="3" y="3" width="44" height="44" />
    <text style="font-size:14px;color:#272727;font-family:'Helvetica', 'Arial', sans-serif;text-anchor:middle;dominant-baseline:middle" x="25.0" y="25.0">Esc</text>
  </g>
  <g transform="translate(50, 118.75)">
    <rect rx="5" stroke-width="2" stroke="#272727" fill="url(#keycap-border)" width="50" height="50" />
    <rect style="fill:#ececec;stroke-width:2" rx="5" x="3" y="3" width="44" height="44" />
    <text style="font-size:14px;color:#272727;font-family:'Helvetica', 'Arial', sans-serif;text-anchor:middle;dominant-baseline:middle" x="25.0" y="25.0">A</text>
  </g>
  <g transform="translate(100, 106.25)">
    <rect rx="5" stroke-width="2" stroke="#272727" fill="url(#keycap-border)" width="50" height="50" />
    <rect style="fill:#ececec;stroke-width:2" rx="5" x="3" y="3" width="44" height="44" />
    <text style="font-size:14px;color:#272727;font-family:'Helvetica', 'Arial', sans-serif;text-anchor:middle;dominant-baseline:middle" x="25.0" y="25.0">S</text>
  </g>
  <g transform="translate(150, 100)">
    <rect rx="5" stroke-width="2" stroke="#272727" fill="url(#keycap-border)" width="50" height="50" />
    <rect style="fill:#ececec;stroke-width:2" rx="5" x="3" y="3" width="44" height="44" />
    <text style="font-size:14px;color:#272727;font-family:'Helvetica', 'Arial', sans-serif;text-anchor:middle;dominant-baseline:middle" x="25.0" y="25.0">D</text>
  </g>
  <g transform="translate(200, 106.25)">
    <rect rx="5" stroke-width="2" stroke="#272727" fill="url(#keycap-border)" width="50" height="50" />
    <rect style="fill:#ececec;stroke-width:2" rx="5" x="3" y="3" width="44" height="44" />
    <text style="font-size:14px;color:#272727;font-family:'Helvetica', 'Arial', sans-serif;text-anchor:middle;dominant-baseline:middle" x="25.0" y="25.0">F</text>
  </g>
  <g transform="translate(250, 112.5)">
    <rect rx="5" stroke-width="2" stroke="#272727" fill="url(#keycap-border)" width="50" height="50" />
    <rect style="fill:#ececec;stroke-width:2" rx="5" x="3" y="3" width="44" height="44" />
    <text style="font-size:14px;color:#272727;font-family:'Helvetica', 'Arial', sans-serif;text-anchor:middle;dominant-baseline:middle" x="25.0" y="25.0">G</text>
  </g>
  <g transform="translate(300, 112.5)">
    <rect stroke-width="2" stroke="#272727" fill="#ccc" rx="5" width="50" height="50" />
  </g>
  <g transform="translate(500, 112.5)">
    <rect stroke-width="2" stroke="#272727" fill="#ccc" rx="5" width="50" height="50" />
  </g>
  <g transform="translate(550, 112.5)">
    <rect rx="5" stroke-width="2" stroke="#272727" fill="url(#keycap-border)" width="50" height="50" />
    <rect style="fill:#ececec;stroke-width:2" rx="5" x="3" y="3" width="44" height="44" />
    <text style="font-size:14px;color:#272727;font-family:'Helvetica', 'Arial', sans-serif;text-anchor:middle;dominant-baseline:middle" x="25.0" y="25.0">H</text>
  </g>
  <g transform="translate(600, 106.25)">
    <rect rx="5" stroke-width="2" stroke="#272727" fill="url(#keycap-border)" width="50" height="50" />
    <rect style="fill:#ececec;stroke-width:2" rx="5" x="3" y="3" width="44" height="44" />
    <text style="font-size:14px;color:#272727;font-family:'Helvetica', 'Arial', sans-serif;text-anchor:middle;dominant-baseline:middle" x="25.0" y="25.0">J</text>
  </g>
  <g transform="translate(650, 100)">
    <rect rx="5" stroke-width="2" stroke="#272727" fill="url(#keycap-border)" width="50" height="50" />
    <rect style="fill:#ececec;stroke-width:2" rx="5" x="3" y="3" width="44" height="44" />
    <text style="font-size:14px;color:#272727;font-family:'Helvetica', 'Arial', sans-serif;text-anchor:middle;dominant-baseline:middle" x="25.0" y="25.0">K</text>
  </g>
  <g transform="translate(700, 106.25)">
    <rect rx="5" stroke-width="2" stroke="#272727" fill="url(#keycap-border)" width="50" height="50" />
    <rect style="fill:#ececec;stroke-width:2" rx="5" x="3" y="3" width="44" height="44" />
    <text style="font-size:14px;color:#272727;font-family:'Helvetica', 'Arial', sans-serif;text-anchor:middle;dominant-baseline:middle" x="25.0" y="25.0">L</text>
  </g>
  <g transform="translate(750, 118.75)">
    <rect rx="5" stroke-width="2" stroke="#272727" fill="url(#keycap-border)" width="50" height="50" />
    <rect style="fill:#ececec;stroke-width:2" rx="5" x="3" y="3" width="44" height="44" />
    <text style="font-size:14px;color:#272727;font-family:'Helvetica', 'Arial', sans-serif;text-anchor:middle;dominant-baseline:middle" x="25.0" y="25.0">;</text>
  </g>
  <g transform="translate(800, 118.75)">
    <rect stroke-width="2" stroke="#272727" fill="#ccc" rx="5" width="50" height="50" />
  </g>
  <g transform="translate(0, 168.75)">
    <rect rx="5" stroke-width="2" stroke="#272727" fill="url(#keycap-border)" width="50" height="50" />
    <rect style="fill:#ececec;stroke-width:2" rx="5" x="3" y="3" width="44" height="44" />
    <text style="font-size:14px;color:#272727;font-family:'Helvetica', 'Arial', sans-serif;text-anchor:middle;dominant-baseline:middle" x="25.0" y="25.0">Shft</text>
  </g>
  <g transform="translate(50, 168.75)">
    <rect rx="5" stroke-width="2" stroke="#272727" fill="url(#keycap-border)" width="50" height="50" />
    <rect style="fill:#ececec;stroke-width:2" rx="5" x="3" y="3" width="44" height="44" />
    <text style="font-size:14px;color:#272727;font-family:'Helvetica', 'Arial', sans-serif;text-anchor:middle;dominant-baseline:middle" x="25.0" y="25.0">Z</text>
  </g>
  <g transform="translate(100, 156.25)">
    <rect rx="5" stroke-width="2" stroke="#272727" fill="url(#keycap-border)" width="50" height="50" />
    <rect style="fill:#ececec;stroke-width:2" rx="5" x="3" y="3" width="44" height="44" />
    <text style="font-size:14px;color:#272727;font-family:'Helvetica', 'Arial', sans-serif;text-anchor:middle;dominant-baseline:middle" x="25.0" y="25.0">X</text>
  </g>
  <g transform="translate(150, 150)">
    <rect rx="5" stroke-width="2" stroke="#272727" fill="url(#keycap-border)" width="50" height="50" />
    <rect style="fill:#ececec;stroke-width:2" rx="5" x="3" y="3" width="44" height="44" />
    <text style="font-size:14px;color:#272727;font-family:'Helvetica', 'Arial', sans-serif;text-anchor:middle;dominant-baseline:middle" x="25.0" y="25.0">C</text>
  </g>
  <g transform="translate(200, 156.25)">
    <rect rx="5" stroke-width="2" stroke="#272727" fill="url(#keycap-border)" width="50" height="50" />
    <rect style="fill:#ececec;stroke-width:2" rx="5" x="3" y="3" width="44" height="44" />
    <text style="font-size:14px;color:#272727;font-family:'Helvetica', 'Arial', sans-serif;text-anchor:middle;dominant-baseline:middle" x="25.0" y="25.0">V</text>
  </g>
  <g transform="translate(250, 162.5)">
    <rect rx="5" stroke-width="2" stroke="#272727" fill="url(#keycap-border)" width="50" height="50" />
    <rect style="fill:#ececec;stroke-width:2" rx="5" x="3" y="3" width="44" height="44" />
    <text style="font-size:14px;color:#272727;font-family:'Helvetica', 'Arial', sans-serif;text-anchor:middle;dominant-baseline:middle" x="25.0" y="25.0">B</text>
  </g>
  <g transform="translate(550, 162.5)">
    <rect rx="5" stroke-width="2" stroke="#272727" fill="url(#keycap-border)" width="50" height="50" />
    <rect style="fill:#ececec;stroke-width:2" rx="5" x="3" y="3" width="44" height="44" />
    <text style="font-size:14px;color:#272727;font-family:'Helvetica', 'Arial', sans-serif;text-anchor:middle;dominant-baseline:middle" x="25.0" y="25.0">N</text>
  </g>
  <g transform="translate(600, 156.25)">
    <rect rx="5" stroke-width="2" stroke="#272727" fill="url(#keycap-border)" width="50" height="50" />
    <rect style="fill:#ececec;stroke-width:2" rx="5" x="3" y="3" width="44" height="44" />
    <text style="font-size:14px;color:#272727;font-family:'Helvetica', 'Arial', sans-serif;text-anchor:middle;dominant-baseline:middle" x="25.0" y="25.0">M</text>
  </g>
  <g transform="translate(650, 150)">
    <rect rx="5" stroke-width="2" stroke="#272727" fill="url(#keycap-border)" width="50" height="50" />
    <rect style="fill:#ececec;stroke-width:2" rx="5" x="3" y="3" width="44" height="44" />
    <text style="font-size:14px;color:#272727;font-family:'Helvetica', 'Arial', sans-serif;text-anchor:middle;dominant-baseline:middle" x="25.0" y="25.0">,</text>
  </g>
  <g transform="translate(700, 156.25)">
    <rect rx="5" stroke-width="2" stroke="#272727" fill="url(#keycap-border)" width="50" height="50" />
    <rect style="fill:#ececec;stroke-width:2" rx="5" x="3" y="3" width="44" height="44" />
    <text style="font-size:14px;color:#272727;font-family:'Helvetica', 'Arial', sans-serif;text-anchor:middle;dominant-baseline:middle" x="25.0" y="25.0">.</text>
  </g>
  <g transform="translate(750, 168.75)">
    <rect rx="5" stroke-width="2" stroke="#272727" fill="url(#keycap-border)" width="50" height="50" />
    <rect style="fill:#ececec;stroke-width:2" rx="5" x="3" y="3" width="44" height="44" />
    <text style="font-size:14px;color:#272727;font-family:'Helvetica', 'Arial', sans-serif;text-anchor:middle;dominant-baseline:middle" x="25.0" y="25.0">/</text>
  </g>
  <g transform="translate(800, 168.75)">
    <rect rx="5" stroke-width="2" stroke="#272727" fill="url(#keycap-border)" width="50" height="50" />
    <rect style="fill:#ececec;stroke-width:2" rx="5" x="3" y="3" width="44" height="44" />
    <text style="font-size:14px;color:#272727;font-family:'Helvetica', 'Arial', sans-serif;text-anchor:middle;dominant-baseline:middle" x="25.0" y="25.0">Shft</text>
  </g>
  <g transform="translate(0, 218.75)">
    <rect rx="5" stroke-width="2" stroke="#272727" fill="url(#keycap-border)" width="50" height="50" />
    <rect style="fill:#ececec;stroke-width:2" rx="5" x="3" y="3" width="44" height="44" />
    <text style="font-size:14px;color:#272727;font-family:'Helvetica', 'Arial', sans-serif;text-anchor:middle;dominant-baseline:middle" x="25.0" y="25.0">Ctrl</text>
  </g>
  <g transform="translate(50, 218.75)">
    <rect rx="5" stroke-width="2" stroke="#272727" fill="url(#keycap-border)" width="50" height="50" />
    <rect style="fill:#ececec;stroke-width:2" rx="5" x="3" y="3" width="44" height="44" />
    <text style="font-size:14px;color:#272727;font-family:'Helvetica', 'Arial', sans-serif;text-anchor:middle;dominant-baseline:middle" x="25.0" y="25.0">Gui</text>
  </g>
  <g transform="translate(100, 206.25)">
    <rect rx="5" stroke-width="2" stroke="#272727" fill="url(#keycap-border)" width="50" height="50" />
    <rect style="fill:#ececec;stroke-width:2" rx="5" x="3" y="3" width="44" height="44" />
    <text style="font-size:14px;color:#272727;font-family:'Helvetica', 'Arial', sans-serif;text-anchor:middle;dominant-baseline:middle" x="25.0" y="25.0">Alt</text>
  </g>
  <g transform="translate(150, 200)">
    <rect rx="5" stroke-width="2" stroke="#272727" fill="url(#keycap-border)" width="50" height="50" />
    <rect style="fill:#ececec;stroke-width:2" rx="5" x="3" y="3" width="44" height="44" />
    <text style="font-size:14px;color:#272727;font-family:'Helvetica', 'Arial', sans-serif;text-anchor:middle;dominant-baseline:middle" x="25.0" y="25.0">MO(GUI)</text>
  </g>
  <g transform="translate(200, 206.25)">
    <rect rx="5" stroke-width="2" stroke="#272727" fill="url(#keycap-border)" width="50" height="50" />
    <rect style="fill:#ececec;stroke-width:2" rx="5" x="3" y="3" width="44" height="44" />
    <text style="font-size:14px;color:#272727;font-family:'Helvetica', 'Arial', sans-serif;text-anchor:middle;dominant-baseline:middle" x="25.0" y="25.0">MO(SYMB)</text>
  </g>
  <g transform="translate(250, 225.0)">
    <rect rx="5" stroke-width="2" stroke="#272727" fill="url(#keycap-border)" width="100" height="50" />
    <rect style="fill:#ececec;stroke-width:2" rx="5" x="3" y="3" width="94" height="44" />
    <text style="font-size:14px;color:#272727;font-family:'Helvetica', 'Arial', sans-serif;text-anchor:middle;dominant-baseline:middle" x="50.0" y="25.0">PB_1</text>
  </g>
  <g transform="translate(500, 225.0)">
    <rect rx="5" stroke-width="2" stroke="#272727" fill="url(#keycap-border)" width="100" height="50" />
    <rect style="fill:#ececec;stroke-width:2" rx="5" x="3" y="3" width="94" height="44" />
    <text style="font-size:14px;color:#272727;font-family:'Helvetica', 'Arial', sans-serif;text-anchor:middle;dominant-baseline:middle" x="50.0" y="25.0">PB_2</text>
  </g>
  <g transform="translate(600, 206.25)">
    <rect rx="5" stroke-width="2" stroke="#272727" fill="url(#keycap-border)" width="50" height="50" />
    <rect style="fill:#ececec;stroke-width:2" rx="5" x="3" y="3" width="44" height="44" />
    <text style="font-size:14px;color:#272727;font-family:'Helvetica', 'Arial', sans-serif;text-anchor:middle;dominant-baseline:middle" x="25.0" y="25.0">MO(NUMB)</text>
  </g>
  <g transform="translate(650, 200)">
    <rect rx="5" stroke-width="2" stroke="#272727" fill="url(#keycap-border)" width="50" height="50" />
    <rect style="fill:#ececec;stroke-width:2" rx="5" x="3" y="3" width="44" height="44" />
    <text style="font-size:14px;color:#272727;font-family:'Helvetica', 'Arial', sans-serif;text-anchor:middle;dominant-baseline:middle" x="25.0" y="25.0">MO(GUI)</text>
  </g>
  <g transform="translate(700, 206.25)">
    <rect rx="5" stroke-width="2" stroke="#272727" fill="url(#keycap-border)" width="50" height="50" />
    <rect style="fill:#ececec;stroke-width:2" rx="5" x="3" y="3" width="44" height="44" />
    <text style="font-size:14px;color:#272727;font-family:'Helvetica', 'Arial', sans-serif;text-anchor:middle;dominant-baseline:middle" x="25.0" y="25.0">Alt</text>
  </g>
  <g transform="translate(750, 218.75)">
    <rect rx="5" stroke-width="2" stroke="#272727" fill="url(#keycap-border)" width="50" height="50" />
    <rect style="fill:#ececec;stroke-width:2" rx="5" x="3" y="3" width="44" height="44" />
    <text style="font-size:14px;color:#272727;font-family:'Helvetica', 'Arial', sans-serif;text-anchor:middle;dominant-baseline:middle" x="25.0" y="25.0">Gui</text>
  </g>
  <g transform="translate(800, 218.75)">
    <rect rx="5" stroke-width="2" stroke="#272727" fill="url(#keycap-border)" width="50" height="50" />
    <rect style="fill:#ececec;stroke-width:2" rx="5" x="3" y="3" width="44" height="44" />
    <text style="font-size:14px;color:#272727;font-family:'Helvetica', 'Arial', sans-serif;text-anchor:middle;dominant-baseline:middle" x="25.0" y="25.0">Ctrl</text>
  </g>
  <g transform="translate(250, 275.0)">
    <rect rx="5" stroke-width="2" stroke="#272727" fill="url(#keycap-border)" width="50" height="75.0" />
    <rect style="fill:#ececec;stroke-width:2" rx="5" x="3" y="3" width="44" height="69.0" />
    <text style="font-size:14px;color:#272727;font-family:'Helvetica', 'Arial', sans-serif;text-anchor:middle;dominant-baseline:middle" x="25.0" y="37.5">Space</text>
  </g>
  <g transform="translate(300, 275.0)">
    <rect rx="5" stroke-width="2" stroke="#272727" fill="url(#keycap-border)" width="50" height="75.0" />
    <rect style="fill:#ececec;stroke-width:2" rx="5" x="3" y="3" width="44" height="69.0" />
    <text style="font-size:14px;color:#272727;font-family:'Helvetica', 'Arial', sans-serif;text-anchor:middle;dominant-baseline:middle" x="25.0" y="37.5">Bksp</text>
  </g>
  <g transform="translate(350, 275.0)">
    <rect rx="5" stroke-width="2" stroke="#272727" fill="url(#keycap-border)" width="50" height="75.0" />
    <rect style="fill:#ececec;stroke-width:2" rx="5" x="3" y="3" width="44" height="69.0" />
    <text style="font-size:14px;color:#272727;font-family:'Helvetica', 'Arial', sans-serif;text-anchor:middle;dominant-baseline:middle" x="25.0" y="37.5">Alt</text>
  </g>
  <g transform="translate(450, 275.0)">
    <rect rx="5" stroke-width="2" stroke="#272727" fill="url(#keycap-border)" width="50" height="75.0" />
    <rect style="fill:#ececec;stroke-width:2" rx="5" x="3" y="3" width="44" height="69.0" />
    <text style="font-size:14px;color:#272727;font-family:'Helvetica', 'Arial', sans-serif;text-anchor:middle;dominant-baseline:middle" x="25.0" y="37.5">Shft</text>
  </g>
  <g transform="translate(500, 275.0)">
    <rect rx="5" stroke-width="2" stroke="#272727" fill="url(#keycap-border)" width="50" height="75.0" />
    <rect style="fill:#ececec;stroke-width:2" rx="5" x="3" y="3" width="44" height="69.0" />
    <text style="font-size:14px;color:#272727;font-family:'Helvetica', 'Arial', sans-serif;text-anchor:middle;dominant-baseline:middle" x="25.0" y="37.5">Tab</text>
  </g>
  <g transform="translate(550, 275.0)">
    <rect rx="5" stroke-width="2" stroke="#272727" fill="url(#keycap-border)" width="50" height="75.0" />
    <rect style="fill:#ececec;stroke-width:2" rx="5" x="3" y="3" width="44" height="69.0" />
    <text style="font-size:14px;color:#272727;font-family:'Helvetica', 'Arial', sans-serif;text-anchor:middle;dominant-baseline:middle" x="25.0" y="37.5">⏎</text>
  </g>
</svg>
