<svg width="885" height="365.0" xmlns="http://www.w3.org/2000/svg">
  <g transform="translate(0, 19.5)">
    <rect style="fill:#ccc;stroke-width:1;stroke:#000" rx="5" width="52" height="52" />
  </g>
  <g transform="translate(52, 19.5)">
    <rect style="fill:#ccc;stroke-width:1;stroke:#000" rx="5" width="52" height="52" />
    <rect style="fill:rgba(255,255,255,0.8);stroke-width:1;stroke:rgba(0,0,0,.1)" rx="5" x="6" y="3" width="40" height="40" />
    <text alignment-baseline="middle" text-anchor="middle" style="font-size:12px;font-family:'Helvetica', 'Arial', sans-serif" x="26.0" y="26.0">1</text>
  </g>
  <g transform="translate(104, 6.5)">
    <rect style="fill:#ccc;stroke-width:1;stroke:#000" rx="5" width="52" height="52" />
    <rect style="fill:rgba(255,255,255,0.8);stroke-width:1;stroke:rgba(0,0,0,.1)" rx="5" x="6" y="3" width="40" height="40" />
    <text alignment-baseline="middle" text-anchor="middle" style="font-size:12px;font-family:'Helvetica', 'Arial', sans-serif" x="26.0" y="26.0">2</text>
  </g>
  <g transform="translate(156, 0)">
    <rect style="fill:#ccc;stroke-width:1;stroke:#000" rx="5" width="52" height="52" />
    <rect style="fill:rgba(255,255,255,0.8);stroke-width:1;stroke:rgba(0,0,0,.1)" rx="5" x="6" y="3" width="40" height="40" />
    <text alignment-baseline="middle" text-anchor="middle" style="font-size:12px;font-family:'Helvetica', 'Arial', sans-serif" x="26.0" y="26.0">3</text>
  </g>
  <g transform="translate(208, 6.5)">
    <rect style="fill:#ccc;stroke-width:1;stroke:#000" rx="5" width="52" height="52" />
    <rect style="fill:rgba(255,255,255,0.8);stroke-width:1;stroke:rgba(0,0,0,.1)" rx="5" x="6" y="3" width="40" height="40" />
    <text alignment-baseline="middle" text-anchor="middle" style="font-size:12px;font-family:'Helvetica', 'Arial', sans-serif" x="26.0" y="26.0">4</text>
  </g>
  <g transform="translate(260, 13.0)">
    <rect style="fill:#ccc;stroke-width:1;stroke:#000" rx="5" width="52" height="52" />
    <rect style="fill:rgba(255,255,255,0.8);stroke-width:1;stroke:rgba(0,0,0,.1)" rx="5" x="6" y="3" width="40" height="40" />
    <text alignment-baseline="middle" text-anchor="middle" style="font-size:12px;font-family:'Helvetica', 'Arial', sans-serif" x="26.0" y="26.0">5</text>
  </g>
  <g transform="translate(312, 13.0)">
    <rect style="fill:#ccc;stroke-width:1;stroke:#000" rx="5" width="52" height="52" />
  </g>
  <g transform="translate(520, 13.0)">
    <rect style="fill:#ccc;stroke-width:1;stroke:#000" rx="5" width="52" height="52" />
  </g>
  <g transform="translate(572, 13.0)">
    <rect style="fill:#ccc;stroke-width:1;stroke:#000" rx="5" width="52" height="52" />
    <rect style="fill:rgba(255,255,255,0.8);stroke-width:1;stroke:rgba(0,0,0,.1)" rx="5" x="6" y="3" width="40" height="40" />
    <text alignment-baseline="middle" text-anchor="middle" style="font-size:12px;font-family:'Helvetica', 'Arial', sans-serif" x="26.0" y="26.0">6</text>
  </g>
  <g transform="translate(624, 6.5)">
    <rect style="fill:#ccc;stroke-width:1;stroke:#000" rx="5" width="52" height="52" />
    <rect style="fill:rgba(255,255,255,0.8);stroke-width:1;stroke:rgba(0,0,0,.1)" rx="5" x="6" y="3" width="40" height="40" />
    <text alignment-baseline="middle" text-anchor="middle" style="font-size:12px;font-family:'Helvetica', 'Arial', sans-serif" x="26.0" y="26.0">7</text>
  </g>
  <g transform="translate(676, 0)">
    <rect style="fill:#ccc;stroke-width:1;stroke:#000" rx="5" width="52" height="52" />
    <rect style="fill:rgba(255,255,255,0.8);stroke-width:1;stroke:rgba(0,0,0,.1)" rx="5" x="6" y="3" width="40" height="40" />
    <text alignment-baseline="middle" text-anchor="middle" style="font-size:12px;font-family:'Helvetica', 'Arial', sans-serif" x="26.0" y="26.0">8</text>
  </g>
  <g transform="translate(728, 6.5)">
    <rect style="fill:#ccc;stroke-width:1;stroke:#000" rx="5" width="52" height="52" />
    <rect style="fill:rgba(255,255,255,0.8);stroke-width:1;stroke:rgba(0,0,0,.1)" rx="5" x="6" y="3" width="40" height="40" />
    <text alignment-baseline="middle" text-anchor="middle" style="font-size:12px;font-family:'Helvetica', 'Arial', sans-serif" x="26.0" y="26.0">9</text>
  </g>
  <g transform="translate(780, 19.5)">
    <rect style="fill:#ccc;stroke-width:1;stroke:#000" rx="5" width="52" height="52" />
    <rect style="fill:rgba(255,255,255,0.8);stroke-width:1;stroke:rgba(0,0,0,.1)" rx="5" x="6" y="3" width="40" height="40" />
    <text alignment-baseline="middle" text-anchor="middle" style="font-size:12px;font-family:'Helvetica', 'Arial', sans-serif" x="26.0" y="26.0">0</text>
  </g>
  <g transform="translate(832, 19.5)">
    <rect style="fill:#ccc;stroke-width:1;stroke:#000" rx="5" width="52" height="52" />
  </g>
  <g transform="translate(0, 71.5)">
    <rect style="fill:#ccc;stroke-width:1;stroke:#000" rx="5" width="52" height="52" />
  </g>
  <g transform="translate(52, 71.5)">
    <rect style="fill:#ccc;stroke-width:1;stroke:#000" rx="5" width="52" height="52" />
    <rect style="fill:rgba(255,255,255,0.8);stroke-width:1;stroke:rgba(0,0,0,.1)" rx="5" x="6" y="3" width="40" height="40" />
    <text alignment-baseline="middle" text-anchor="middle" style="font-size:12px;font-family:'Helvetica', 'Arial', sans-serif" x="26.0" y="26.0">Q</text>
  </g>
  <g transform="translate(104, 58.5)">
    <rect style="fill:#ccc;stroke-width:1;stroke:#000" rx="5" width="52" height="52" />
    <rect style="fill:rgba(255,255,255,0.8);stroke-width:1;stroke:rgba(0,0,0,.1)" rx="5" x="6" y="3" width="40" height="40" />
    <text alignment-baseline="middle" text-anchor="middle" style="font-size:12px;font-family:'Helvetica', 'Arial', sans-serif" x="26.0" y="26.0">W</text>
  </g>
  <g transform="translate(156, 52)">
    <rect style="fill:#ccc;stroke-width:1;stroke:#000" rx="5" width="52" height="52" />
    <rect style="fill:rgba(255,255,255,0.8);stroke-width:1;stroke:rgba(0,0,0,.1)" rx="5" x="6" y="3" width="40" height="40" />
    <text alignment-baseline="middle" text-anchor="middle" style="font-size:12px;font-family:'Helvetica', 'Arial', sans-serif" x="26.0" y="26.0">E</text>
  </g>
  <g transform="translate(208, 58.5)">
    <rect style="fill:#ccc;stroke-width:1;stroke:#000" rx="5" width="52" height="52" />
    <rect style="fill:rgba(255,255,255,0.8);stroke-width:1;stroke:rgba(0,0,0,.1)" rx="5" x="6" y="3" width="40" height="40" />
    <text alignment-baseline="middle" text-anchor="middle" style="font-size:12px;font-family:'Helvetica', 'Arial', sans-serif" x="26.0" y="26.0">R</text>
  </g>
  <g transform="translate(260, 65.0)">
    <rect style="fill:#ccc;stroke-width:1;stroke:#000" rx="5" width="52" height="52" />
    <rect style="fill:rgba(255,255,255,0.8);stroke-width:1;stroke:rgba(0,0,0,.1)" rx="5" x="6" y="3" width="40" height="40" />
    <text alignment-baseline="middle" text-anchor="middle" style="font-size:12px;font-family:'Helvetica', 'Arial', sans-serif" x="26.0" y="26.0">T</text>
  </g>
  <g transform="translate(312, 65.0)">
    <rect style="fill:#ccc;stroke-width:1;stroke:#000" rx="5" width="52" height="52" />
  </g>
  <g transform="translate(520, 65.0)">
    <rect style="fill:#ccc;stroke-width:1;stroke:#000" rx="5" width="52" height="52" />
  </g>
  <g transform="translate(572, 65.0)">
    <rect style="fill:#ccc;stroke-width:1;stroke:#000" rx="5" width="52" height="52" />
    <rect style="fill:rgba(255,255,255,0.8);stroke-width:1;stroke:rgba(0,0,0,.1)" rx="5" x="6" y="3" width="40" height="40" />
    <text alignment-baseline="middle" text-anchor="middle" style="font-size:12px;font-family:'Helvetica', 'Arial', sans-serif" x="26.0" y="26.0">Y</text>
  </g>
  <g transform="translate(624, 58.5)">
    <rect style="fill:#ccc;stroke-width:1;stroke:#000" rx="5" width="52" height="52" />
    <rect style="fill:rgba(255,255,255,0.8);stroke-width:1;stroke:rgba(0,0,0,.1)" rx="5" x="6" y="3" width="40" height="40" />
    <text alignment-baseline="middle" text-anchor="middle" style="font-size:12px;font-family:'Helvetica', 'Arial', sans-serif" x="26.0" y="26.0">U</text>
  </g>
  <g transform="translate(676, 52)">
    <rect style="fill:#ccc;stroke-width:1;stroke:#000" rx="5" width="52" height="52" />
    <rect style="fill:rgba(255,255,255,0.8);stroke-width:1;stroke:rgba(0,0,0,.1)" rx="5" x="6" y="3" width="40" height="40" />
    <text alignment-baseline="middle" text-anchor="middle" style="font-size:12px;font-family:'Helvetica', 'Arial', sans-serif" x="26.0" y="26.0">I</text>
  </g>
  <g transform="translate(728, 58.5)">
    <rect style="fill:#ccc;stroke-width:1;stroke:#000" rx="5" width="52" height="52" />
    <rect style="fill:rgba(255,255,255,0.8);stroke-width:1;stroke:rgba(0,0,0,.1)" rx="5" x="6" y="3" width="40" height="40" />
    <text alignment-baseline="middle" text-anchor="middle" style="font-size:12px;font-family:'Helvetica', 'Arial', sans-serif" x="26.0" y="26.0">O</text>
  </g>
  <g transform="translate(780, 71.5)">
    <rect style="fill:#ccc;stroke-width:1;stroke:#000" rx="5" width="52" height="52" />
    <rect style="fill:rgba(255,255,255,0.8);stroke-width:1;stroke:rgba(0,0,0,.1)" rx="5" x="6" y="3" width="40" height="40" />
    <text alignment-baseline="middle" text-anchor="middle" style="font-size:12px;font-family:'Helvetica', 'Arial', sans-serif" x="26.0" y="26.0">P</text>
  </g>
  <g transform="translate(832, 71.5)">
    <rect style="fill:#ccc;stroke-width:1;stroke:#000" rx="5" width="52" height="52" />
  </g>
  <g transform="translate(0, 123.5)">
    <rect style="fill:#ccc;stroke-width:1;stroke:#000" rx="5" width="52" height="52" />
    <rect style="fill:rgba(255,255,255,0.8);stroke-width:1;stroke:rgba(0,0,0,.1)" rx="5" x="6" y="3" width="40" height="40" />
    <text alignment-baseline="middle" text-anchor="middle" style="font-size:12px;font-family:'Helvetica', 'Arial', sans-serif" x="26.0" y="26.0">Esc</text>
  </g>
  <g transform="translate(52, 123.5)">
    <rect style="fill:#ccc;stroke-width:1;stroke:#000" rx="5" width="52" height="52" />
    <rect style="fill:rgba(255,255,255,0.8);stroke-width:1;stroke:rgba(0,0,0,.1)" rx="5" x="6" y="3" width="40" height="40" />
    <text alignment-baseline="middle" text-anchor="middle" style="font-size:12px;font-family:'Helvetica', 'Arial', sans-serif" x="26.0" y="26.0">A</text>
  </g>
  <g transform="translate(104, 110.5)">
    <rect style="fill:#ccc;stroke-width:1;stroke:#000" rx="5" width="52" height="52" />
    <rect style="fill:rgba(255,255,255,0.8);stroke-width:1;stroke:rgba(0,0,0,.1)" rx="5" x="6" y="3" width="40" height="40" />
    <text alignment-baseline="middle" text-anchor="middle" style="font-size:12px;font-family:'Helvetica', 'Arial', sans-serif" x="26.0" y="26.0">S</text>
  </g>
  <g transform="translate(156, 104)">
    <rect style="fill:#ccc;stroke-width:1;stroke:#000" rx="5" width="52" height="52" />
    <rect style="fill:rgba(255,255,255,0.8);stroke-width:1;stroke:rgba(0,0,0,.1)" rx="5" x="6" y="3" width="40" height="40" />
    <text alignment-baseline="middle" text-anchor="middle" style="font-size:12px;font-family:'Helvetica', 'Arial', sans-serif" x="26.0" y="26.0">D</text>
  </g>
  <g transform="translate(208, 110.5)">
    <rect style="fill:#ccc;stroke-width:1;stroke:#000" rx="5" width="52" height="52" />
    <rect style="fill:rgba(255,255,255,0.8);stroke-width:1;stroke:rgba(0,0,0,.1)" rx="5" x="6" y="3" width="40" height="40" />
    <text alignment-baseline="middle" text-anchor="middle" style="font-size:12px;font-family:'Helvetica', 'Arial', sans-serif" x="26.0" y="26.0">F</text>
  </g>
  <g transform="translate(260, 117.0)">
    <rect style="fill:#ccc;stroke-width:1;stroke:#000" rx="5" width="52" height="52" />
    <rect style="fill:rgba(255,255,255,0.8);stroke-width:1;stroke:rgba(0,0,0,.1)" rx="5" x="6" y="3" width="40" height="40" />
    <text alignment-baseline="middle" text-anchor="middle" style="font-size:12px;font-family:'Helvetica', 'Arial', sans-serif" x="26.0" y="26.0">G</text>
  </g>
  <g transform="translate(312, 117.0)">
    <rect style="fill:#ccc;stroke-width:1;stroke:#000" rx="5" width="52" height="52" />
  </g>
  <g transform="translate(520, 117.0)">
    <rect style="fill:#ccc;stroke-width:1;stroke:#000" rx="5" width="52" height="52" />
  </g>
  <g transform="translate(572, 117.0)">
    <rect style="fill:#ccc;stroke-width:1;stroke:#000" rx="5" width="52" height="52" />
    <rect style="fill:rgba(255,255,255,0.8);stroke-width:1;stroke:rgba(0,0,0,.1)" rx="5" x="6" y="3" width="40" height="40" />
    <text alignment-baseline="middle" text-anchor="middle" style="font-size:12px;font-family:'Helvetica', 'Arial', sans-serif" x="26.0" y="26.0">H</text>
  </g>
  <g transform="translate(624, 110.5)">
    <rect style="fill:#ccc;stroke-width:1;stroke:#000" rx="5" width="52" height="52" />
    <rect style="fill:rgba(255,255,255,0.8);stroke-width:1;stroke:rgba(0,0,0,.1)" rx="5" x="6" y="3" width="40" height="40" />
    <text alignment-baseline="middle" text-anchor="middle" style="font-size:12px;font-family:'Helvetica', 'Arial', sans-serif" x="26.0" y="26.0">J</text>
  </g>
  <g transform="translate(676, 104)">
    <rect style="fill:#ccc;stroke-width:1;stroke:#000" rx="5" width="52" height="52" />
    <rect style="fill:rgba(255,255,255,0.8);stroke-width:1;stroke:rgba(0,0,0,.1)" rx="5" x="6" y="3" width="40" height="40" />
    <text alignment-baseline="middle" text-anchor="middle" style="font-size:12px;font-family:'Helvetica', 'Arial', sans-serif" x="26.0" y="26.0">K</text>
  </g>
  <g transform="translate(728, 110.5)">
    <rect style="fill:#ccc;stroke-width:1;stroke:#000" rx="5" width="52" height="52" />
    <rect style="fill:rgba(255,255,255,0.8);stroke-width:1;stroke:rgba(0,0,0,.1)" rx="5" x="6" y="3" width="40" height="40" />
    <text alignment-baseline="middle" text-anchor="middle" style="font-size:12px;font-family:'Helvetica', 'Arial', sans-serif" x="26.0" y="26.0">L</text>
  </g>
  <g transform="translate(780, 123.5)">
    <rect style="fill:#ccc;stroke-width:1;stroke:#000" rx="5" width="52" height="52" />
    <rect style="fill:rgba(255,255,255,0.8);stroke-width:1;stroke:rgba(0,0,0,.1)" rx="5" x="6" y="3" width="40" height="40" />
    <text alignment-baseline="middle" text-anchor="middle" style="font-size:12px;font-family:'Helvetica', 'Arial', sans-serif" x="26.0" y="26.0">;</text>
  </g>
  <g transform="translate(832, 123.5)">
    <rect style="fill:#ccc;stroke-width:1;stroke:#000" rx="5" width="52" height="52" />
  </g>
  <g transform="translate(0, 175.5)">
    <rect style="fill:#ccc;stroke-width:1;stroke:#000" rx="5" width="52" height="52" />
    <rect style="fill:rgba(255,255,255,0.8);stroke-width:1;stroke:rgba(0,0,0,.1)" rx="5" x="6" y="3" width="40" height="40" />
    <text alignment-baseline="middle" text-anchor="middle" style="font-size:12px;font-family:'Helvetica', 'Arial', sans-serif" x="26.0" y="26.0">Shft</text>
  </g>
  <g transform="translate(52, 175.5)">
    <rect style="fill:#ccc;stroke-width:1;stroke:#000" rx="5" width="52" height="52" />
    <rect style="fill:rgba(255,255,255,0.8);stroke-width:1;stroke:rgba(0,0,0,.1)" rx="5" x="6" y="3" width="40" height="40" />
    <text alignment-baseline="middle" text-anchor="middle" style="font-size:12px;font-family:'Helvetica', 'Arial', sans-serif" x="26.0" y="26.0">Z</text>
  </g>
  <g transform="translate(104, 162.5)">
    <rect style="fill:#ccc;stroke-width:1;stroke:#000" rx="5" width="52" height="52" />
    <rect style="fill:rgba(255,255,255,0.8);stroke-width:1;stroke:rgba(0,0,0,.1)" rx="5" x="6" y="3" width="40" height="40" />
    <text alignment-baseline="middle" text-anchor="middle" style="font-size:12px;font-family:'Helvetica', 'Arial', sans-serif" x="26.0" y="26.0">X</text>
  </g>
  <g transform="translate(156, 156)">
    <rect style="fill:#ccc;stroke-width:1;stroke:#000" rx="5" width="52" height="52" />
    <rect style="fill:rgba(255,255,255,0.8);stroke-width:1;stroke:rgba(0,0,0,.1)" rx="5" x="6" y="3" width="40" height="40" />
    <text alignment-baseline="middle" text-anchor="middle" style="font-size:12px;font-family:'Helvetica', 'Arial', sans-serif" x="26.0" y="26.0">C</text>
  </g>
  <g transform="translate(208, 162.5)">
    <rect style="fill:#ccc;stroke-width:1;stroke:#000" rx="5" width="52" height="52" />
    <rect style="fill:rgba(255,255,255,0.8);stroke-width:1;stroke:rgba(0,0,0,.1)" rx="5" x="6" y="3" width="40" height="40" />
    <text alignment-baseline="middle" text-anchor="middle" style="font-size:12px;font-family:'Helvetica', 'Arial', sans-serif" x="26.0" y="26.0">V</text>
  </g>
  <g transform="translate(260, 169.0)">
    <rect style="fill:#ccc;stroke-width:1;stroke:#000" rx="5" width="52" height="52" />
    <rect style="fill:rgba(255,255,255,0.8);stroke-width:1;stroke:rgba(0,0,0,.1)" rx="5" x="6" y="3" width="40" height="40" />
    <text alignment-baseline="middle" text-anchor="middle" style="font-size:12px;font-family:'Helvetica', 'Arial', sans-serif" x="26.0" y="26.0">B</text>
  </g>
  <g transform="translate(572, 169.0)">
    <rect style="fill:#ccc;stroke-width:1;stroke:#000" rx="5" width="52" height="52" />
    <rect style="fill:rgba(255,255,255,0.8);stroke-width:1;stroke:rgba(0,0,0,.1)" rx="5" x="6" y="3" width="40" height="40" />
    <text alignment-baseline="middle" text-anchor="middle" style="font-size:12px;font-family:'Helvetica', 'Arial', sans-serif" x="26.0" y="26.0">N</text>
  </g>
  <g transform="translate(624, 162.5)">
    <rect style="fill:#ccc;stroke-width:1;stroke:#000" rx="5" width="52" height="52" />
    <rect style="fill:rgba(255,255,255,0.8);stroke-width:1;stroke:rgba(0,0,0,.1)" rx="5" x="6" y="3" width="40" height="40" />
    <text alignment-baseline="middle" text-anchor="middle" style="font-size:12px;font-family:'Helvetica', 'Arial', sans-serif" x="26.0" y="26.0">M</text>
  </g>
  <g transform="translate(676, 156)">
    <rect style="fill:#ccc;stroke-width:1;stroke:#000" rx="5" width="52" height="52" />
    <rect style="fill:rgba(255,255,255,0.8);stroke-width:1;stroke:rgba(0,0,0,.1)" rx="5" x="6" y="3" width="40" height="40" />
    <text alignment-baseline="middle" text-anchor="middle" style="font-size:12px;font-family:'Helvetica', 'Arial', sans-serif" x="26.0" y="26.0">,</text>
  </g>
  <g transform="translate(728, 162.5)">
    <rect style="fill:#ccc;stroke-width:1;stroke:#000" rx="5" width="52" height="52" />
    <rect style="fill:rgba(255,255,255,0.8);stroke-width:1;stroke:rgba(0,0,0,.1)" rx="5" x="6" y="3" width="40" height="40" />
    <text alignment-baseline="middle" text-anchor="middle" style="font-size:12px;font-family:'Helvetica', 'Arial', sans-serif" x="26.0" y="26.0">.</text>
  </g>
  <g transform="translate(780, 175.5)">
    <rect style="fill:#ccc;stroke-width:1;stroke:#000" rx="5" width="52" height="52" />
    <rect style="fill:rgba(255,255,255,0.8);stroke-width:1;stroke:rgba(0,0,0,.1)" rx="5" x="6" y="3" width="40" height="40" />
    <text alignment-baseline="middle" text-anchor="middle" style="font-size:12px;font-family:'Helvetica', 'Arial', sans-serif" x="26.0" y="26.0">/</text>
  </g>
  <g transform="translate(832, 175.5)">
    <rect style="fill:#ccc;stroke-width:1;stroke:#000" rx="5" width="52" height="52" />
    <rect style="fill:rgba(255,255,255,0.8);stroke-width:1;stroke:rgba(0,0,0,.1)" rx="5" x="6" y="3" width="40" height="40" />
    <text alignment-baseline="middle" text-anchor="middle" style="font-size:12px;font-family:'Helvetica', 'Arial', sans-serif" x="26.0" y="26.0">Shft</text>
  </g>
  <g transform="translate(0, 227.5)">
    <rect style="fill:#ccc;stroke-width:1;stroke:#000" rx="5" width="52" height="52" />
    <rect style="fill:rgba(255,255,255,0.8);stroke-width:1;stroke:rgba(0,0,0,.1)" rx="5" x="6" y="3" width="40" height="40" />
    <text alignment-baseline="middle" text-anchor="middle" style="font-size:12px;font-family:'Helvetica', 'Arial', sans-serif" x="26.0" y="26.0">Ctrl</text>
  </g>
  <g transform="translate(52, 227.5)">
    <rect style="fill:#ccc;stroke-width:1;stroke:#000" rx="5" width="52" height="52" />
    <rect style="fill:rgba(255,255,255,0.8);stroke-width:1;stroke:rgba(0,0,0,.1)" rx="5" x="6" y="3" width="40" height="40" />
    <text alignment-baseline="middle" text-anchor="middle" style="font-size:12px;font-family:'Helvetica', 'Arial', sans-serif" x="26.0" y="26.0">Gui</text>
  </g>
  <g transform="translate(104, 214.5)">
    <rect style="fill:#ccc;stroke-width:1;stroke:#000" rx="5" width="52" height="52" />
    <rect style="fill:rgba(255,255,255,0.8);stroke-width:1;stroke:rgba(0,0,0,.1)" rx="5" x="6" y="3" width="40" height="40" />
    <text alignment-baseline="middle" text-anchor="middle" style="font-size:12px;font-family:'Helvetica', 'Arial', sans-serif" x="26.0" y="26.0">Alt</text>
  </g>
  <g transform="translate(156, 208)">
    <rect style="fill:#ccc;stroke-width:1;stroke:#000" rx="5" width="52" height="52" />
    <rect style="fill:rgba(255,255,255,0.8);stroke-width:1;stroke:rgba(0,0,0,.1)" rx="5" x="6" y="3" width="40" height="40" />
    <text alignment-baseline="middle" text-anchor="middle" style="font-size:12px;font-family:'Helvetica', 'Arial', sans-serif" x="26.0" y="26.0">MO(MDIA)</text>
  </g>
  <g transform="translate(208, 214.5)">
    <rect style="fill:#ccc;stroke-width:1;stroke:#000" rx="5" width="52" height="52" />
    <rect style="fill:rgba(255,255,255,0.8);stroke-width:1;stroke:rgba(0,0,0,.1)" rx="5" x="6" y="3" width="40" height="40" />
    <text alignment-baseline="middle" text-anchor="middle" style="font-size:12px;font-family:'Helvetica', 'Arial', sans-serif" x="26.0" y="26.0">MO(SYMB)</text>
  </g>
  <g transform="translate(260, 234.0)">
    <rect style="fill:#ccc;stroke-width:1;stroke:#000" rx="5" width="104" height="52" />
    <rect style="fill:rgba(255,255,255,0.8);stroke-width:1;stroke:rgba(0,0,0,.1)" rx="5" x="6" y="3" width="92" height="40" />
    <text alignment-baseline="middle" text-anchor="middle" style="font-size:12px;font-family:'Helvetica', 'Arial', sans-serif" x="52.0" y="26.0">PB_1</text>
  </g>
  <g transform="translate(520, 234.0)">
    <rect style="fill:#ccc;stroke-width:1;stroke:#000" rx="5" width="104" height="52" />
    <rect style="fill:rgba(255,255,255,0.8);stroke-width:1;stroke:rgba(0,0,0,.1)" rx="5" x="6" y="3" width="92" height="40" />
    <text alignment-baseline="middle" text-anchor="middle" style="font-size:12px;font-family:'Helvetica', 'Arial', sans-serif" x="52.0" y="26.0">PB_2</text>
  </g>
  <g transform="translate(624, 214.5)">
    <rect style="fill:#ccc;stroke-width:1;stroke:#000" rx="5" width="52" height="52" />
    <rect style="fill:rgba(255,255,255,0.8);stroke-width:1;stroke:rgba(0,0,0,.1)" rx="5" x="6" y="3" width="40" height="40" />
    <text alignment-baseline="middle" text-anchor="middle" style="font-size:12px;font-family:'Helvetica', 'Arial', sans-serif" x="26.0" y="26.0">MO(SYMB)</text>
  </g>
  <g transform="translate(676, 208)">
    <rect style="fill:#ccc;stroke-width:1;stroke:#000" rx="5" width="52" height="52" />
    <rect style="fill:rgba(255,255,255,0.8);stroke-width:1;stroke:rgba(0,0,0,.1)" rx="5" x="6" y="3" width="40" height="40" />
    <text alignment-baseline="middle" text-anchor="middle" style="font-size:12px;font-family:'Helvetica', 'Arial', sans-serif" x="26.0" y="26.0">MO(MDIA)</text>
  </g>
  <g transform="translate(728, 214.5)">
    <rect style="fill:#ccc;stroke-width:1;stroke:#000" rx="5" width="52" height="52" />
    <rect style="fill:rgba(255,255,255,0.8);stroke-width:1;stroke:rgba(0,0,0,.1)" rx="5" x="6" y="3" width="40" height="40" />
    <text alignment-baseline="middle" text-anchor="middle" style="font-size:12px;font-family:'Helvetica', 'Arial', sans-serif" x="26.0" y="26.0">Alt</text>
  </g>
  <g transform="translate(780, 227.5)">
    <rect style="fill:#ccc;stroke-width:1;stroke:#000" rx="5" width="52" height="52" />
    <rect style="fill:rgba(255,255,255,0.8);stroke-width:1;stroke:rgba(0,0,0,.1)" rx="5" x="6" y="3" width="40" height="40" />
    <text alignment-baseline="middle" text-anchor="middle" style="font-size:12px;font-family:'Helvetica', 'Arial', sans-serif" x="26.0" y="26.0">Gui</text>
  </g>
  <g transform="translate(832, 227.5)">
    <rect style="fill:#ccc;stroke-width:1;stroke:#000" rx="5" width="52" height="52" />
    <rect style="fill:rgba(255,255,255,0.8);stroke-width:1;stroke:rgba(0,0,0,.1)" rx="5" x="6" y="3" width="40" height="40" />
    <text alignment-baseline="middle" text-anchor="middle" style="font-size:12px;font-family:'Helvetica', 'Arial', sans-serif" x="26.0" y="26.0">Ctrl</text>
  </g>
  <g transform="translate(260, 286.0)">
    <rect style="fill:#ccc;stroke-width:1;stroke:#000" rx="5" width="52" height="78.0" />
    <rect style="fill:rgba(255,255,255,0.8);stroke-width:1;stroke:rgba(0,0,0,.1)" rx="5" x="6" y="3" width="40" height="66.0" />
    <text alignment-baseline="middle" text-anchor="middle" style="font-size:12px;font-family:'Helvetica', 'Arial', sans-serif" x="26.0" y="39.0">Space</text>
  </g>
  <g transform="translate(312, 286.0)">
    <rect style="fill:#ccc;stroke-width:1;stroke:#000" rx="5" width="52" height="78.0" />
    <rect style="fill:rgba(255,255,255,0.8);stroke-width:1;stroke:rgba(0,0,0,.1)" rx="5" x="6" y="3" width="40" height="66.0" />
    <text alignment-baseline="middle" text-anchor="middle" style="font-size:12px;font-family:'Helvetica', 'Arial', sans-serif" x="26.0" y="39.0">Bksp</text>
  </g>
  <g transform="translate(364, 286.0)">
    <rect style="fill:#ccc;stroke-width:1;stroke:#000" rx="5" width="52" height="78.0" />
    <rect style="fill:rgba(255,255,255,0.8);stroke-width:1;stroke:rgba(0,0,0,.1)" rx="5" x="6" y="3" width="40" height="66.0" />
    <text alignment-baseline="middle" text-anchor="middle" style="font-size:12px;font-family:'Helvetica', 'Arial', sans-serif" x="26.0" y="39.0">Alt</text>
  </g>
  <g transform="translate(468, 286.0)">
    <rect style="fill:#ccc;stroke-width:1;stroke:#000" rx="5" width="52" height="78.0" />
    <rect style="fill:rgba(255,255,255,0.8);stroke-width:1;stroke:rgba(0,0,0,.1)" rx="5" x="6" y="3" width="40" height="66.0" />
    <text alignment-baseline="middle" text-anchor="middle" style="font-size:12px;font-family:'Helvetica', 'Arial', sans-serif" x="26.0" y="39.0">Shft</text>
  </g>
  <g transform="translate(520, 286.0)">
    <rect style="fill:#ccc;stroke-width:1;stroke:#000" rx="5" width="52" height="78.0" />
    <rect style="fill:rgba(255,255,255,0.8);stroke-width:1;stroke:rgba(0,0,0,.1)" rx="5" x="6" y="3" width="40" height="66.0" />
    <text alignment-baseline="middle" text-anchor="middle" style="font-size:12px;font-family:'Helvetica', 'Arial', sans-serif" x="26.0" y="39.0">Tab</text>
  </g>
  <g transform="translate(572, 286.0)">
    <rect style="fill:#ccc;stroke-width:1;stroke:#000" rx="5" width="52" height="78.0" />
    <rect style="fill:rgba(255,255,255,0.8);stroke-width:1;stroke:rgba(0,0,0,.1)" rx="5" x="6" y="3" width="40" height="66.0" />
    <text alignment-baseline="middle" text-anchor="middle" style="font-size:12px;font-family:'Helvetica', 'Arial', sans-serif" x="26.0" y="39.0">⏎</text>
  </g>
</svg>
