<svg width="852" height="352.0" xmlns="http://www.w3.org/2000/svg">
  <defs>
    <linearGradient id="keycap-border" x1="0%" y1="0%" x2="0%" y2="100%">
      <stop offset="0%" stop-color="#fefefe" />
      <stop offset="100%" stop-color="#c4c4c4" />
    </linearGradient>
  </defs>
  <g transform="translate(0, 18.75)">
    <rect rx="5" stroke-width="2" stroke="#272727" fill="url(#keycap-border)" width="50" height="50" />
    <rect style="fill:#ececec;stroke-width:2" rx="5" x="3" y="3" width="44" height="44" />
    <text style="font-size:14px;color:#272727;font-family:'Helvetica', 'Arial', sans-serif;text-anchor:middle;dominant-baseline:middle" x="25.0" y="25.0">VRSN</text>
  </g>
  <g transform="translate(50, 18.75)">
    <rect rx="5" stroke-width="2" stroke="#272727" fill="url(#keycap-border)" width="50" height="50" />
    <rect style="fill:#ececec;stroke-width:2" rx="5" x="3" y="3" width="44" height="44" />
    <text style="font-size:14px;color:#272727;font-family:'Helvetica', 'Arial', sans-serif;text-anchor:middle;dominant-baseline:middle" x="25.0" y="25.0">F1</text>
  </g>
  <g transform="translate(100, 6.25)">
    <rect rx="5" stroke-width="2" stroke="#272727" fill="url(#keycap-border)" width="50" height="50" />
    <rect style="fill:#ececec;stroke-width:2" rx="5" x="3" y="3" width="44" height="44" />
    <text style="font-size:14px;color:#272727;font-family:'Helvetica', 'Arial', sans-serif;text-anchor:middle;dominant-baseline:middle" x="25.0" y="25.0">F2</text>
  </g>
  <g transform="translate(150, 0)">
    <rect rx="5" stroke-width="2" stroke="#272727" fill="url(#keycap-border)" width="50" height="50" />
    <rect style="fill:#ececec;stroke-width:2" rx="5" x="3" y="3" width="44" height="44" />
    <text style="font-size:14px;color:#272727;font-family:'Helvetica', 'Arial', sans-serif;text-anchor:middle;dominant-baseline:middle" x="25.0" y="25.0">F3</text>
  </g>
  <g transform="translate(200, 6.25)">
    <rect rx="5" stroke-width="2" stroke="#272727" fill="url(#keycap-border)" width="50" height="50" />
    <rect style="fill:#ececec;stroke-width:2" rx="5" x="3" y="3" width="44" height="44" />
    <text style="font-size:14px;color:#272727;font-family:'Helvetica', 'Arial', sans-serif;text-anchor:middle;dominant-baseline:middle" x="25.0" y="25.0">F4</text>
  </g>
  <g transform="translate(250, 12.5)">
    <rect rx="5" stroke-width="2" stroke="#272727" fill="url(#keycap-border)" width="50" height="50" />
    <rect style="fill:#ececec;stroke-width:2" rx="5" x="3" y="3" width="44" height="44" />
    <text style="font-size:14px;color:#272727;font-family:'Helvetica', 'Arial', sans-serif;text-anchor:middle;dominant-baseline:middle" x="25.0" y="25.0">F5</text>
  </g>
  <g transform="translate(300, 12.5)">
    <rect rx="5" stroke-width="2" stroke="#272727" fill="url(#keycap-border)" width="50" height="50" />
    <rect style="fill:#ececec;stroke-width:2" rx="5" x="3" y="3" width="44" height="44" />
    <text style="font-size:14px;color:#272727;font-family:'Helvetica', 'Arial', sans-serif;text-anchor:middle;dominant-baseline:middle" x="25.0" y="25.0">F6</text>
  </g>
  <g transform="translate(500, 12.5)">
    <rect rx="5" stroke-width="2" stroke="#272727" fill="url(#keycap-border)" width="50" height="50" />
    <rect style="fill:#ececec;stroke-width:2" rx="5" x="3" y="3" width="44" height="44" />
    <text style="font-size:14px;color:#272727;font-family:'Helvetica', 'Arial', sans-serif;text-anchor:middle;dominant-baseline:middle" x="25.0" y="25.0">F7</text>
  </g>
  <g transform="translate(550, 12.5)">
    <rect rx="5" stroke-width="2" stroke="#272727" fill="url(#keycap-border)" width="50" height="50" />
    <rect style="fill:#ececec;stroke-width:2" rx="5" x="3" y="3" width="44" height="44" />
    <text style="font-size:14px;color:#272727;font-family:'Helvetica', 'Arial', sans-serif;text-anchor:middle;dominant-baseline:middle" x="25.0" y="25.0">F8</text>
  </g>
  <g transform="translate(600, 6.25)">
    <rect rx="5" stroke-width="2" stroke="#272727" fill="url(#keycap-border)" width="50" height="50" />
    <rect style="fill:#ececec;stroke-width:2" rx="5" x="3" y="3" width="44" height="44" />
    <text style="font-size:14px;color:#272727;font-family:'Helvetica', 'Arial', sans-serif;text-anchor:middle;dominant-baseline:middle" x="25.0" y="25.0">F9</text>
  </g>
  <g transform="translate(650, 0)">
    <rect rx="5" stroke-width="2" stroke="#272727" fill="url(#keycap-border)" width="50" height="50" />
    <rect style="fill:#ececec;stroke-width:2" rx="5" x="3" y="3" width="44" height="44" />
    <text style="font-size:14px;color:#272727;font-family:'Helvetica', 'Arial', sans-serif;text-anchor:middle;dominant-baseline:middle" x="25.0" y="25.0">F10</text>
  </g>
  <g transform="translate(700, 6.25)">
    <rect rx="5" stroke-width="2" stroke="#272727" fill="url(#keycap-border)" width="50" height="50" />
    <rect style="fill:#ececec;stroke-width:2" rx="5" x="3" y="3" width="44" height="44" />
    <text style="font-size:14px;color:#272727;font-family:'Helvetica', 'Arial', sans-serif;text-anchor:middle;dominant-baseline:middle" x="25.0" y="25.0">F11</text>
  </g>
  <g transform="translate(750, 18.75)">
    <rect rx="5" stroke-width="2" stroke="#272727" fill="url(#keycap-border)" width="50" height="50" />
    <rect style="fill:#ececec;stroke-width:2" rx="5" x="3" y="3" width="44" height="44" />
    <text style="font-size:14px;color:#272727;font-family:'Helvetica', 'Arial', sans-serif;text-anchor:middle;dominant-baseline:middle" x="25.0" y="25.0">F12</text>
  </g>
  <g transform="translate(800, 18.75)">
    <rect stroke-width="2" stroke="#272727" fill="#ccc" rx="5" width="50" height="50" />
  </g>
  <g transform="translate(0, 68.75)">
    <rect stroke-width="2" stroke="#272727" fill="#ccc" rx="5" width="50" height="50" />
  </g>
  <g transform="translate(50, 68.75)">
    <rect stroke-width="2" stroke="#272727" fill="#ccc" rx="5" width="50" height="50" />
  </g>
  <g transform="translate(100, 56.25)">
    <rect rx="5" stroke-width="2" stroke="#272727" fill="url(#keycap-border)" width="50" height="50" />
    <rect style="fill:#ececec;stroke-width:2" rx="5" x="3" y="3" width="44" height="44" />
    <text style="font-size:14px;color:#272727;font-family:'Helvetica', 'Arial', sans-serif;text-anchor:middle;dominant-baseline:middle" x="25.0" y="25.0">-</text>
  </g>
  <g transform="translate(150, 50)">
    <rect rx="5" stroke-width="2" stroke="#272727" fill="url(#keycap-border)" width="50" height="50" />
    <rect style="fill:#ececec;stroke-width:2" rx="5" x="3" y="3" width="44" height="44" />
    <text style="font-size:14px;color:#272727;font-family:'Helvetica', 'Arial', sans-serif;text-anchor:middle;dominant-baseline:middle" x="25.0" y="25.0">{</text>
  </g>
  <g transform="translate(200, 56.25)">
    <rect rx="5" stroke-width="2" stroke="#272727" fill="url(#keycap-border)" width="50" height="50" />
    <rect style="fill:#ececec;stroke-width:2" rx="5" x="3" y="3" width="44" height="44" />
    <text style="font-size:14px;color:#272727;font-family:'Helvetica', 'Arial', sans-serif;text-anchor:middle;dominant-baseline:middle" x="25.0" y="25.0">}</text>
  </g>
  <g transform="translate(250, 62.5)">
    <rect rx="5" stroke-width="2" stroke="#272727" fill="url(#keycap-border)" width="50" height="50" />
    <rect style="fill:#ececec;stroke-width:2" rx="5" x="3" y="3" width="44" height="44" />
    <text style="font-size:14px;color:#272727;font-family:'Helvetica', 'Arial', sans-serif;text-anchor:middle;dominant-baseline:middle" x="25.0" y="25.0">|</text>
  </g>
  <g transform="translate(300, 62.5)">
    <rect stroke-width="2" stroke="#272727" fill="#ccc" rx="5" width="50" height="50" />
  </g>
  <g transform="translate(500, 62.5)">
    <rect stroke-width="2" stroke="#272727" fill="#ccc" rx="5" width="50" height="50" />
  </g>
  <g transform="translate(550, 62.5)">
    <rect rx="5" stroke-width="2" stroke="#272727" fill="url(#keycap-border)" width="50" height="50" />
    <rect style="fill:#ececec;stroke-width:2" rx="5" x="3" y="3" width="44" height="44" />
    <text style="font-size:14px;color:#272727;font-family:'Helvetica', 'Arial', sans-serif;text-anchor:middle;dominant-baseline:middle" x="25.0" y="25.0">"</text>
  </g>
  <g transform="translate(600, 56.25)">
    <rect rx="5" stroke-width="2" stroke="#272727" fill="url(#keycap-border)" width="50" height="50" />
    <rect style="fill:#ececec;stroke-width:2" rx="5" x="3" y="3" width="44" height="44" />
    <text style="font-size:14px;color:#272727;font-family:'Helvetica', 'Arial', sans-serif;text-anchor:middle;dominant-baseline:middle" x="25.0" y="25.0">&amp;</text>
  </g>
  <g transform="translate(650, 50)">
    <rect rx="5" stroke-width="2" stroke="#272727" fill="url(#keycap-border)" width="50" height="50" />
    <rect style="fill:#ececec;stroke-width:2" rx="5" x="3" y="3" width="44" height="44" />
    <text style="font-size:14px;color:#272727;font-family:'Helvetica', 'Arial', sans-serif;text-anchor:middle;dominant-baseline:middle" x="25.0" y="25.0">*</text>
  </g>
  <g transform="translate(700, 56.25)">
    <rect rx="5" stroke-width="2" stroke="#272727" fill="url(#keycap-border)" width="50" height="50" />
    <rect style="fill:#ececec;stroke-width:2" rx="5" x="3" y="3" width="44" height="44" />
    <text style="font-size:14px;color:#272727;font-family:'Helvetica', 'Arial', sans-serif;text-anchor:middle;dominant-baseline:middle" x="25.0" y="25.0">@</text>
  </g>
  <g transform="translate(750, 68.75)">
    <rect rx="5" stroke-width="2" stroke="#272727" fill="url(#keycap-border)" width="50" height="50" />
    <rect style="fill:#ececec;stroke-width:2" rx="5" x="3" y="3" width="44" height="44" />
    <text style="font-size:14px;color:#272727;font-family:'Helvetica', 'Arial', sans-serif;text-anchor:middle;dominant-baseline:middle" x="25.0" y="25.0">#</text>
  </g>
  <g transform="translate(800, 68.75)">
    <rect stroke-width="2" stroke="#272727" fill="#ccc" rx="5" width="50" height="50" />
  </g>
  <g transform="translate(0, 118.75)">
    <rect stroke-width="2" stroke="#272727" fill="#ccc" rx="5" width="50" height="50" />
  </g>
  <g transform="translate(50, 118.75)">
    <rect rx="5" stroke-width="2" stroke="#272727" fill="url(#keycap-border)" width="50" height="50" />
    <rect style="fill:#ececec;stroke-width:2" rx="5" x="3" y="3" width="44" height="44" />
    <text style="font-size:14px;color:#272727;font-family:'Helvetica', 'Arial', sans-serif;text-anchor:middle;dominant-baseline:middle" x="25.0" y="25.0">=</text>
  </g>
  <g transform="translate(100, 106.25)">
    <rect rx="5" stroke-width="2" stroke="#272727" fill="url(#keycap-border)" width="50" height="50" />
    <rect style="fill:#ececec;stroke-width:2" rx="5" x="3" y="3" width="44" height="44" />
    <text style="font-size:14px;color:#272727;font-family:'Helvetica', 'Arial', sans-serif;text-anchor:middle;dominant-baseline:middle" x="25.0" y="25.0">_</text>
  </g>
  <g transform="translate(150, 100)">
    <rect rx="5" stroke-width="2" stroke="#272727" fill="url(#keycap-border)" width="50" height="50" />
    <rect style="fill:#ececec;stroke-width:2" rx="5" x="3" y="3" width="44" height="44" />
    <text style="font-size:14px;color:#272727;font-family:'Helvetica', 'Arial', sans-serif;text-anchor:middle;dominant-baseline:middle" x="25.0" y="25.0">(</text>
  </g>
  <g transform="translate(200, 106.25)">
    <rect rx="5" stroke-width="2" stroke="#272727" fill="url(#keycap-border)" width="50" height="50" />
    <rect style="fill:#ececec;stroke-width:2" rx="5" x="3" y="3" width="44" height="44" />
    <text style="font-size:14px;color:#272727;font-family:'Helvetica', 'Arial', sans-serif;text-anchor:middle;dominant-baseline:middle" x="25.0" y="25.0">)</text>
  </g>
  <g transform="translate(250, 112.5)">
    <rect rx="5" stroke-width="2" stroke="#272727" fill="url(#keycap-border)" width="50" height="50" />
    <rect style="fill:#ececec;stroke-width:2" rx="5" x="3" y="3" width="44" height="44" />
    <text style="font-size:14px;color:#272727;font-family:'Helvetica', 'Arial', sans-serif;text-anchor:middle;dominant-baseline:middle" x="25.0" y="25.0">+</text>
  </g>
  <g transform="translate(300, 112.5)">
    <rect stroke-width="2" stroke="#272727" fill="#ccc" rx="5" width="50" height="50" />
  </g>
  <g transform="translate(500, 112.5)">
    <rect stroke-width="2" stroke="#272727" fill="#ccc" rx="5" width="50" height="50" />
  </g>
  <g transform="translate(550, 112.5)">
    <rect rx="5" stroke-width="2" stroke="#272727" fill="url(#keycap-border)" width="50" height="50" />
    <rect style="fill:#ececec;stroke-width:2" rx="5" x="3" y="3" width="44" height="44" />
    <text style="font-size:14px;color:#272727;font-family:'Helvetica', 'Arial', sans-serif;text-anchor:middle;dominant-baseline:middle" x="25.0" y="25.0">'</text>
  </g>
  <g transform="translate(600, 106.25)">
    <rect rx="5" stroke-width="2" stroke="#272727" fill="url(#keycap-border)" width="50" height="50" />
    <rect style="fill:#ececec;stroke-width:2" rx="5" x="3" y="3" width="44" height="44" />
    <text style="font-size:14px;color:#272727;font-family:'Helvetica', 'Arial', sans-serif;text-anchor:middle;dominant-baseline:middle" x="25.0" y="25.0">$</text>
  </g>
  <g transform="translate(650, 100)">
    <rect rx="5" stroke-width="2" stroke="#272727" fill="url(#keycap-border)" width="50" height="50" />
    <rect style="fill:#ececec;stroke-width:2" rx="5" x="3" y="3" width="44" height="44" />
    <text style="font-size:14px;color:#272727;font-family:'Helvetica', 'Arial', sans-serif;text-anchor:middle;dominant-baseline:middle" x="25.0" y="25.0">%</text>
  </g>
  <g transform="translate(700, 106.25)">
    <rect rx="5" stroke-width="2" stroke="#272727" fill="url(#keycap-border)" width="50" height="50" />
    <rect style="fill:#ececec;stroke-width:2" rx="5" x="3" y="3" width="44" height="44" />
    <text style="font-size:14px;color:#272727;font-family:'Helvetica', 'Arial', sans-serif;text-anchor:middle;dominant-baseline:middle" x="25.0" y="25.0">^</text>
  </g>
  <g transform="translate(750, 118.75)">
    <rect rx="5" stroke-width="2" stroke="#272727" fill="url(#keycap-border)" width="50" height="50" />
    <rect style="fill:#ececec;stroke-width:2" rx="5" x="3" y="3" width="44" height="44" />
    <text style="font-size:14px;color:#272727;font-family:'Helvetica', 'Arial', sans-serif;text-anchor:middle;dominant-baseline:middle" x="25.0" y="25.0">:</text>
  </g>
  <g transform="translate(800, 118.75)">
    <rect stroke-width="2" stroke="#272727" fill="#ccc" rx="5" width="50" height="50" />
  </g>
  <g transform="translate(0, 168.75)">
    <rect stroke-width="2" stroke="#272727" fill="#ccc" rx="5" width="50" height="50" />
  </g>
  <g transform="translate(50, 168.75)">
    <rect stroke-width="2" stroke="#272727" fill="#ccc" rx="5" width="50" height="50" />
  </g>
  <g transform="translate(100, 156.25)">
    <rect rx="5" stroke-width="2" stroke="#272727" fill="url(#keycap-border)" width="50" height="50" />
    <rect style="fill:#ececec;stroke-width:2" rx="5" x="3" y="3" width="44" height="44" />
    <text style="font-size:14px;color:#272727;font-family:'Helvetica', 'Arial', sans-serif;text-anchor:middle;dominant-baseline:middle" x="25.0" y="25.0">\</text>
  </g>
  <g transform="translate(150, 150)">
    <rect rx="5" stroke-width="2" stroke="#272727" fill="url(#keycap-border)" width="50" height="50" />
    <rect style="fill:#ececec;stroke-width:2" rx="5" x="3" y="3" width="44" height="44" />
    <text style="font-size:14px;color:#272727;font-family:'Helvetica', 'Arial', sans-serif;text-anchor:middle;dominant-baseline:middle" x="25.0" y="25.0">[</text>
  </g>
  <g transform="translate(200, 156.25)">
    <rect rx="5" stroke-width="2" stroke="#272727" fill="url(#keycap-border)" width="50" height="50" />
    <rect style="fill:#ececec;stroke-width:2" rx="5" x="3" y="3" width="44" height="44" />
    <text style="font-size:14px;color:#272727;font-family:'Helvetica', 'Arial', sans-serif;text-anchor:middle;dominant-baseline:middle" x="25.0" y="25.0">]</text>
  </g>
  <g transform="translate(250, 162.5)">
    <rect rx="5" stroke-width="2" stroke="#272727" fill="url(#keycap-border)" width="50" height="50" />
    <rect style="fill:#ececec;stroke-width:2" rx="5" x="3" y="3" width="44" height="44" />
    <text style="font-size:14px;color:#272727;font-family:'Helvetica', 'Arial', sans-serif;text-anchor:middle;dominant-baseline:middle" x="25.0" y="25.0">~</text>
  </g>
  <g transform="translate(550, 162.5)">
    <rect rx="5" stroke-width="2" stroke="#272727" fill="url(#keycap-border)" width="50" height="50" />
    <rect style="fill:#ececec;stroke-width:2" rx="5" x="3" y="3" width="44" height="44" />
    <text style="font-size:14px;color:#272727;font-family:'Helvetica', 'Arial', sans-serif;text-anchor:middle;dominant-baseline:middle" x="25.0" y="25.0">`</text>
  </g>
  <g transform="translate(600, 156.25)">
    <rect rx="5" stroke-width="2" stroke="#272727" fill="url(#keycap-border)" width="50" height="50" />
    <rect style="fill:#ececec;stroke-width:2" rx="5" x="3" y="3" width="44" height="44" />
    <text style="font-size:14px;color:#272727;font-family:'Helvetica', 'Arial', sans-serif;text-anchor:middle;dominant-baseline:middle" x="25.0" y="25.0">!</text>
  </g>
  <g transform="translate(650, 150)">
    <rect rx="5" stroke-width="2" stroke="#272727" fill="url(#keycap-border)" width="50" height="50" />
    <rect style="fill:#ececec;stroke-width:2" rx="5" x="3" y="3" width="44" height="44" />
    <text style="font-size:14px;color:#272727;font-family:'Helvetica', 'Arial', sans-serif;text-anchor:middle;dominant-baseline:middle" x="25.0" y="25.0">&lt;</text>
  </g>
  <g transform="translate(700, 156.25)">
    <rect rx="5" stroke-width="2" stroke="#272727" fill="url(#keycap-border)" width="50" height="50" />
    <rect style="fill:#ececec;stroke-width:2" rx="5" x="3" y="3" width="44" height="44" />
    <text style="font-size:14px;color:#272727;font-family:'Helvetica', 'Arial', sans-serif;text-anchor:middle;dominant-baseline:middle" x="25.0" y="25.0">&gt;</text>
  </g>
  <g transform="translate(750, 168.75)">
    <rect rx="5" stroke-width="2" stroke="#272727" fill="url(#keycap-border)" width="50" height="50" />
    <rect style="fill:#ececec;stroke-width:2" rx="5" x="3" y="3" width="44" height="44" />
    <text style="font-size:14px;color:#272727;font-family:'Helvetica', 'Arial', sans-serif;text-anchor:middle;dominant-baseline:middle" x="25.0" y="25.0">?</text>
  </g>
  <g transform="translate(800, 168.75)">
    <rect stroke-width="2" stroke="#272727" fill="#ccc" rx="5" width="50" height="50" />
  </g>
  <g transform="translate(0, 218.75)">
    <rect stroke-width="2" stroke="#272727" fill="#ccc" rx="5" width="50" height="50" />
  </g>
  <g transform="translate(50, 218.75)">
    <rect stroke-width="2" stroke="#272727" fill="#ccc" rx="5" width="50" height="50" />
  </g>
  <g transform="translate(100, 206.25)">
    <rect stroke-width="2" stroke="#272727" fill="#ccc" rx="5" width="50" height="50" />
  </g>
  <g transform="translate(150, 200)">
    <rect stroke-width="2" stroke="#272727" fill="#ccc" rx="5" width="50" height="50" />
  </g>
  <g transform="translate(200, 206.25)">
    <rect stroke-width="2" stroke="#272727" fill="#ccc" rx="5" width="50" height="50" />
  </g>
  <g transform="translate(250, 225.0)">
    <rect stroke-width="2" stroke="#272727" fill="#ccc" rx="5" width="100" height="50" />
  </g>
  <g transform="translate(500, 225.0)">
    <rect stroke-width="2" stroke="#272727" fill="#ccc" rx="5" width="100" height="50" />
  </g>
  <g transform="translate(600, 206.25)">
    <rect stroke-width="2" stroke="#272727" fill="#ccc" rx="5" width="50" height="50" />
  </g>
  <g transform="translate(650, 200)">
    <rect stroke-width="2" stroke="#272727" fill="#ccc" rx="5" width="50" height="50" />
  </g>
  <g transform="translate(700, 206.25)">
    <rect stroke-width="2" stroke="#272727" fill="#ccc" rx="5" width="50" height="50" />
  </g>
  <g transform="translate(750, 218.75)">
    <rect stroke-width="2" stroke="#272727" fill="#ccc" rx="5" width="50" height="50" />
  </g>
  <g transform="translate(800, 218.75)">
    <rect stroke-width="2" stroke="#272727" fill="#ccc" rx="5" width="50" height="50" />
  </g>
  <g transform="translate(250, 275.0)">
    <rect stroke-width="2" stroke="#272727" fill="#ccc" rx="5" width="50" height="75.0" />
  </g>
  <g transform="translate(300, 275.0)">
    <rect stroke-width="2" stroke="#272727" fill="#ccc" rx="5" width="50" height="75.0" />
  </g>
  <g transform="translate(350, 275.0)">
    <rect stroke-width="2" stroke="#272727" fill="#ccc" rx="5" width="50" height="75.0" />
  </g>
  <g transform="translate(450, 275.0)">
    <rect stroke-width="2" stroke="#272727" fill="#ccc" rx="5" width="50" height="75.0" />
  </g>
  <g transform="translate(500, 275.0)">
    <rect stroke-width="2" stroke="#272727" fill="#ccc" rx="5" width="50" height="75.0" />
  </g>
  <g transform="translate(550, 275.0)">
    <rect stroke-width="2" stroke="#272727" fill="#ccc" rx="5" width="50" height="75.0" />
  </g>
</svg>
