<svg width="1000" height="420" xmlns="http://www.w3.org/2000/svg"><g transform="translate(0, 20.25)"><rect style="fill:#ccc;stroke-width:1;stroke:#000" rx="5" width="54" height="54" /><rect style="fill:rgba(255,255,255,0.8);stroke-width:1;stroke:rgba(0,0,0,.1)" rx="5" x="6" y="3" width="42" height="42" /><text alignment-baseline="middle" text-anchor="middle" style="font-size:12px;font-family:'Helvetica', 'Arial', sans-serif" x="27.0" y="27.0">VRSN</text></g><g transform="translate(54, 20.25)"><rect style="fill:#ccc;stroke-width:1;stroke:#000" rx="5" width="54" height="54" /><rect style="fill:rgba(255,255,255,0.8);stroke-width:1;stroke:rgba(0,0,0,.1)" rx="5" x="6" y="3" width="42" height="42" /><text alignment-baseline="middle" text-anchor="middle" style="font-size:12px;font-family:'Helvetica', 'Arial', sans-serif" x="27.0" y="27.0">F1</text></g><g transform="translate(108, 6.75)"><rect style="fill:#ccc;stroke-width:1;stroke:#000" rx="5" width="54" height="54" /><rect style="fill:rgba(255,255,255,0.8);stroke-width:1;stroke:rgba(0,0,0,.1)" rx="5" x="6" y="3" width="42" height="42" /><text alignment-baseline="middle" text-anchor="middle" style="font-size:12px;font-family:'Helvetica', 'Arial', sans-serif" x="27.0" y="27.0">F2</text></g><g transform="translate(162, 0)"><rect style="fill:#ccc;stroke-width:1;stroke:#000" rx="5" width="54" height="54" /><rect style="fill:rgba(255,255,255,0.8);stroke-width:1;stroke:rgba(0,0,0,.1)" rx="5" x="6" y="3" width="42" height="42" /><text alignment-baseline="middle" text-anchor="middle" style="font-size:12px;font-family:'Helvetica', 'Arial', sans-serif" x="27.0" y="27.0">F3</text></g><g transform="translate(216, 6.75)"><rect style="fill:#ccc;stroke-width:1;stroke:#000" rx="5" width="54" height="54" /><rect style="fill:rgba(255,255,255,0.8);stroke-width:1;stroke:rgba(0,0,0,.1)" rx="5" x="6" y="3" width="42" height="42" /><text alignment-baseline="middle" text-anchor="middle" style="font-size:12px;font-family:'Helvetica', 'Arial', sans-serif" x="27.0" y="27.0">F4</text></g><g transform="translate(270, 13.5)"><rect style="fill:#ccc;stroke-width:1;stroke:#000" rx="5" width="54" height="54" /><rect style="fill:rgba(255,255,255,0.8);stroke-width:1;stroke:rgba(0,0,0,.1)" rx="5" x="6" y="3" width="42" height="42" /><text alignment-baseline="middle" text-anchor="middle" style="font-size:12px;font-family:'Helvetica', 'Arial', sans-serif" x="27.0" y="27.0">F5</text></g><g transform="translate(324, 13.5)"><rect style="fill:#ccc;stroke-width:1;stroke:#000" rx="5" width="54" height="54" /><rect style="fill:rgba(255,255,255,0.8);stroke-width:1;stroke:rgba(0,0,0,.1)" rx="5" x="6" y="3" width="42" height="42" /><text alignment-baseline="middle" text-anchor="middle" style="font-size:12px;font-family:'Helvetica', 'Arial', sans-serif" x="27.0" y="27.0">F6</text></g><g transform="translate(540, 13.5)"><rect style="fill:#ccc;stroke-width:1;stroke:#000" rx="5" width="54" height="54" /><rect style="fill:rgba(255,255,255,0.8);stroke-width:1;stroke:rgba(0,0,0,.1)" rx="5" x="6" y="3" width="42" height="42" /><text alignment-baseline="middle" text-anchor="middle" style="font-size:12px;font-family:'Helvetica', 'Arial', sans-serif" x="27.0" y="27.0">F7</text></g><g transform="translate(594, 13.5)"><rect style="fill:#ccc;stroke-width:1;stroke:#000" rx="5" width="54" height="54" /><rect style="fill:rgba(255,255,255,0.8);stroke-width:1;stroke:rgba(0,0,0,.1)" rx="5" x="6" y="3" width="42" height="42" /><text alignment-baseline="middle" text-anchor="middle" style="font-size:12px;font-family:'Helvetica', 'Arial', sans-serif" x="27.0" y="27.0">F8</text></g><g transform="translate(648, 6.75)"><rect style="fill:#ccc;stroke-width:1;stroke:#000" rx="5" width="54" height="54" /><rect style="fill:rgba(255,255,255,0.8);stroke-width:1;stroke:rgba(0,0,0,.1)" rx="5" x="6" y="3" width="42" height="42" /><text alignment-baseline="middle" text-anchor="middle" style="font-size:12px;font-family:'Helvetica', 'Arial', sans-serif" x="27.0" y="27.0">F9</text></g><g transform="translate(702, 0)"><rect style="fill:#ccc;stroke-width:1;stroke:#000" rx="5" width="54" height="54" /><rect style="fill:rgba(255,255,255,0.8);stroke-width:1;stroke:rgba(0,0,0,.1)" rx="5" x="6" y="3" width="42" height="42" /><text alignment-baseline="middle" text-anchor="middle" style="font-size:12px;font-family:'Helvetica', 'Arial', sans-serif" x="27.0" y="27.0">F10</text></g><g transform="translate(756, 6.75)"><rect style="fill:#ccc;stroke-width:1;stroke:#000" rx="5" width="54" height="54" /><rect style="fill:rgba(255,255,255,0.8);stroke-width:1;stroke:rgba(0,0,0,.1)" rx="5" x="6" y="3" width="42" height="42" /><text alignment-baseline="middle" text-anchor="middle" style="font-size:12px;font-family:'Helvetica', 'Arial', sans-serif" x="27.0" y="27.0">F11</text></g><g transform="translate(810, 20.25)"><rect style="fill:#ccc;stroke-width:1;stroke:#000" rx="5" width="54" height="54" /><rect style="fill:rgba(255,255,255,0.8);stroke-width:1;stroke:rgba(0,0,0,.1)" rx="5" x="6" y="3" width="42" height="42" /><text alignment-baseline="middle" text-anchor="middle" style="font-size:12px;font-family:'Helvetica', 'Arial', sans-serif" x="27.0" y="27.0">F12</text></g><g transform="translate(864, 20.25)"><rect style="fill:#ccc;stroke-width:1;stroke:#000" rx="5" width="54" height="54" /></g><g transform="translate(0, 74.25)"><rect style="fill:#ccc;stroke-width:1;stroke:#000" rx="5" width="54" height="54" /></g><g transform="translate(54, 74.25)"><rect style="fill:#ccc;stroke-width:1;stroke:#000" rx="5" width="54" height="54" /></g><g transform="translate(108, 60.75)"><rect style="fill:#ccc;stroke-width:1;stroke:#000" rx="5" width="54" height="54" /><rect style="fill:rgba(255,255,255,0.8);stroke-width:1;stroke:rgba(0,0,0,.1)" rx="5" x="6" y="3" width="42" height="42" /><text alignment-baseline="middle" text-anchor="middle" style="font-size:12px;font-family:'Helvetica', 'Arial', sans-serif" x="27.0" y="27.0">-</text></g><g transform="translate(162, 54)"><rect style="fill:#ccc;stroke-width:1;stroke:#000" rx="5" width="54" height="54" /><rect style="fill:rgba(255,255,255,0.8);stroke-width:1;stroke:rgba(0,0,0,.1)" rx="5" x="6" y="3" width="42" height="42" /><text alignment-baseline="middle" text-anchor="middle" style="font-size:12px;font-family:'Helvetica', 'Arial', sans-serif" x="27.0" y="27.0">{</text></g><g transform="translate(216, 60.75)"><rect style="fill:#ccc;stroke-width:1;stroke:#000" rx="5" width="54" height="54" /><rect style="fill:rgba(255,255,255,0.8);stroke-width:1;stroke:rgba(0,0,0,.1)" rx="5" x="6" y="3" width="42" height="42" /><text alignment-baseline="middle" text-anchor="middle" style="font-size:12px;font-family:'Helvetica', 'Arial', sans-serif" x="27.0" y="27.0">}</text></g><g transform="translate(270, 67.5)"><rect style="fill:#ccc;stroke-width:1;stroke:#000" rx="5" width="54" height="54" /><rect style="fill:rgba(255,255,255,0.8);stroke-width:1;stroke:rgba(0,0,0,.1)" rx="5" x="6" y="3" width="42" height="42" /><text alignment-baseline="middle" text-anchor="middle" style="font-size:12px;font-family:'Helvetica', 'Arial', sans-serif" x="27.0" y="27.0">|</text></g><g transform="translate(324, 67.5)"><rect style="fill:#ccc;stroke-width:1;stroke:#000" rx="5" width="54" height="54" /></g><g transform="translate(540, 67.5)"><rect style="fill:#ccc;stroke-width:1;stroke:#000" rx="5" width="54" height="54" /></g><g transform="translate(594, 67.5)"><rect style="fill:#ccc;stroke-width:1;stroke:#000" rx="5" width="54" height="54" /><rect style="fill:rgba(255,255,255,0.8);stroke-width:1;stroke:rgba(0,0,0,.1)" rx="5" x="6" y="3" width="42" height="42" /><text alignment-baseline="middle" text-anchor="middle" style="font-size:12px;font-family:'Helvetica', 'Arial', sans-serif" x="27.0" y="27.0">"</text></g><g transform="translate(648, 60.75)"><rect style="fill:#ccc;stroke-width:1;stroke:#000" rx="5" width="54" height="54" /><rect style="fill:rgba(255,255,255,0.8);stroke-width:1;stroke:rgba(0,0,0,.1)" rx="5" x="6" y="3" width="42" height="42" /><text alignment-baseline="middle" text-anchor="middle" style="font-size:12px;font-family:'Helvetica', 'Arial', sans-serif" x="27.0" y="27.0">7</text></g><g transform="translate(702, 54)"><rect style="fill:#ccc;stroke-width:1;stroke:#000" rx="5" width="54" height="54" /><rect style="fill:rgba(255,255,255,0.8);stroke-width:1;stroke:rgba(0,0,0,.1)" rx="5" x="6" y="3" width="42" height="42" /><text alignment-baseline="middle" text-anchor="middle" style="font-size:12px;font-family:'Helvetica', 'Arial', sans-serif" x="27.0" y="27.0">8</text></g><g transform="translate(756, 60.75)"><rect style="fill:#ccc;stroke-width:1;stroke:#000" rx="5" width="54" height="54" /><rect style="fill:rgba(255,255,255,0.8);stroke-width:1;stroke:rgba(0,0,0,.1)" rx="5" x="6" y="3" width="42" height="42" /><text alignment-baseline="middle" text-anchor="middle" style="font-size:12px;font-family:'Helvetica', 'Arial', sans-serif" x="27.0" y="27.0">9</text></g><g transform="translate(810, 74.25)"><rect style="fill:#ccc;stroke-width:1;stroke:#000" rx="5" width="54" height="54" /></g><g transform="translate(864, 74.25)"><rect style="fill:#ccc;stroke-width:1;stroke:#000" rx="5" width="54" height="54" /></g><g transform="translate(0, 128.25)"><rect style="fill:#ccc;stroke-width:1;stroke:#000" rx="5" width="54" height="54" /></g><g transform="translate(54, 128.25)"><rect style="fill:#ccc;stroke-width:1;stroke:#000" rx="5" width="54" height="54" /><rect style="fill:rgba(255,255,255,0.8);stroke-width:1;stroke:rgba(0,0,0,.1)" rx="5" x="6" y="3" width="42" height="42" /><text alignment-baseline="middle" text-anchor="middle" style="font-size:12px;font-family:'Helvetica', 'Arial', sans-serif" x="27.0" y="27.0">=</text></g><g transform="translate(108, 114.75)"><rect style="fill:#ccc;stroke-width:1;stroke:#000" rx="5" width="54" height="54" /><rect style="fill:rgba(255,255,255,0.8);stroke-width:1;stroke:rgba(0,0,0,.1)" rx="5" x="6" y="3" width="42" height="42" /><text alignment-baseline="middle" text-anchor="middle" style="font-size:12px;font-family:'Helvetica', 'Arial', sans-serif" x="27.0" y="27.0">_</text></g><g transform="translate(162, 108)"><rect style="fill:#ccc;stroke-width:1;stroke:#000" rx="5" width="54" height="54" /><rect style="fill:rgba(255,255,255,0.8);stroke-width:1;stroke:rgba(0,0,0,.1)" rx="5" x="6" y="3" width="42" height="42" /><text alignment-baseline="middle" text-anchor="middle" style="font-size:12px;font-family:'Helvetica', 'Arial', sans-serif" x="27.0" y="27.0">(</text></g><g transform="translate(216, 114.75)"><rect style="fill:#ccc;stroke-width:1;stroke:#000" rx="5" width="54" height="54" /><rect style="fill:rgba(255,255,255,0.8);stroke-width:1;stroke:rgba(0,0,0,.1)" rx="5" x="6" y="3" width="42" height="42" /><text alignment-baseline="middle" text-anchor="middle" style="font-size:12px;font-family:'Helvetica', 'Arial', sans-serif" x="27.0" y="27.0">)</text></g><g transform="translate(270, 121.5)"><rect style="fill:#ccc;stroke-width:1;stroke:#000" rx="5" width="54" height="54" /><rect style="fill:rgba(255,255,255,0.8);stroke-width:1;stroke:rgba(0,0,0,.1)" rx="5" x="6" y="3" width="42" height="42" /><text alignment-baseline="middle" text-anchor="middle" style="font-size:12px;font-family:'Helvetica', 'Arial', sans-serif" x="27.0" y="27.0">+</text></g><g transform="translate(324, 121.5)"><rect style="fill:#ccc;stroke-width:1;stroke:#000" rx="5" width="54" height="54" /></g><g transform="translate(540, 121.5)"><rect style="fill:#ccc;stroke-width:1;stroke:#000" rx="5" width="54" height="54" /></g><g transform="translate(594, 121.5)"><rect style="fill:#ccc;stroke-width:1;stroke:#000" rx="5" width="54" height="54" /><rect style="fill:rgba(255,255,255,0.8);stroke-width:1;stroke:rgba(0,0,0,.1)" rx="5" x="6" y="3" width="42" height="42" /><text alignment-baseline="middle" text-anchor="middle" style="font-size:12px;font-family:'Helvetica', 'Arial', sans-serif" x="27.0" y="27.0">'</text></g><g transform="translate(648, 114.75)"><rect style="fill:#ccc;stroke-width:1;stroke:#000" rx="5" width="54" height="54" /><rect style="fill:rgba(255,255,255,0.8);stroke-width:1;stroke:rgba(0,0,0,.1)" rx="5" x="6" y="3" width="42" height="42" /><text alignment-baseline="middle" text-anchor="middle" style="font-size:12px;font-family:'Helvetica', 'Arial', sans-serif" x="27.0" y="27.0">4</text></g><g transform="translate(702, 108)"><rect style="fill:#ccc;stroke-width:1;stroke:#000" rx="5" width="54" height="54" /><rect style="fill:rgba(255,255,255,0.8);stroke-width:1;stroke:rgba(0,0,0,.1)" rx="5" x="6" y="3" width="42" height="42" /><text alignment-baseline="middle" text-anchor="middle" style="font-size:12px;font-family:'Helvetica', 'Arial', sans-serif" x="27.0" y="27.0">5</text></g><g transform="translate(756, 114.75)"><rect style="fill:#ccc;stroke-width:1;stroke:#000" rx="5" width="54" height="54" /><rect style="fill:rgba(255,255,255,0.8);stroke-width:1;stroke:rgba(0,0,0,.1)" rx="5" x="6" y="3" width="42" height="42" /><text alignment-baseline="middle" text-anchor="middle" style="font-size:12px;font-family:'Helvetica', 'Arial', sans-serif" x="27.0" y="27.0">6</text></g><g transform="translate(810, 128.25)"><rect style="fill:#ccc;stroke-width:1;stroke:#000" rx="5" width="54" height="54" /><rect style="fill:rgba(255,255,255,0.8);stroke-width:1;stroke:rgba(0,0,0,.1)" rx="5" x="6" y="3" width="42" height="42" /><text alignment-baseline="middle" text-anchor="middle" style="font-size:12px;font-family:'Helvetica', 'Arial', sans-serif" x="27.0" y="27.0">0</text></g><g transform="translate(864, 128.25)"><rect style="fill:#ccc;stroke-width:1;stroke:#000" rx="5" width="54" height="54" /></g><g transform="translate(0, 182.25)"><rect style="fill:#ccc;stroke-width:1;stroke:#000" rx="5" width="54" height="54" /></g><g transform="translate(54, 182.25)"><rect style="fill:#ccc;stroke-width:1;stroke:#000" rx="5" width="54" height="54" /></g><g transform="translate(108, 168.75)"><rect style="fill:#ccc;stroke-width:1;stroke:#000" rx="5" width="54" height="54" /><rect style="fill:rgba(255,255,255,0.8);stroke-width:1;stroke:rgba(0,0,0,.1)" rx="5" x="6" y="3" width="42" height="42" /><text alignment-baseline="middle" text-anchor="middle" style="font-size:12px;font-family:'Helvetica', 'Arial', sans-serif" x="27.0" y="27.0">\</text></g><g transform="translate(162, 162)"><rect style="fill:#ccc;stroke-width:1;stroke:#000" rx="5" width="54" height="54" /><rect style="fill:rgba(255,255,255,0.8);stroke-width:1;stroke:rgba(0,0,0,.1)" rx="5" x="6" y="3" width="42" height="42" /><text alignment-baseline="middle" text-anchor="middle" style="font-size:12px;font-family:'Helvetica', 'Arial', sans-serif" x="27.0" y="27.0">[</text></g><g transform="translate(216, 168.75)"><rect style="fill:#ccc;stroke-width:1;stroke:#000" rx="5" width="54" height="54" /><rect style="fill:rgba(255,255,255,0.8);stroke-width:1;stroke:rgba(0,0,0,.1)" rx="5" x="6" y="3" width="42" height="42" /><text alignment-baseline="middle" text-anchor="middle" style="font-size:12px;font-family:'Helvetica', 'Arial', sans-serif" x="27.0" y="27.0">]</text></g><g transform="translate(270, 175.5)"><rect style="fill:#ccc;stroke-width:1;stroke:#000" rx="5" width="54" height="54" /><rect style="fill:rgba(255,255,255,0.8);stroke-width:1;stroke:rgba(0,0,0,.1)" rx="5" x="6" y="3" width="42" height="42" /><text alignment-baseline="middle" text-anchor="middle" style="font-size:12px;font-family:'Helvetica', 'Arial', sans-serif" x="27.0" y="27.0">~</text></g><g transform="translate(594, 175.5)"><rect style="fill:#ccc;stroke-width:1;stroke:#000" rx="5" width="54" height="54" /><rect style="fill:rgba(255,255,255,0.8);stroke-width:1;stroke:rgba(0,0,0,.1)" rx="5" x="6" y="3" width="42" height="42" /><text alignment-baseline="middle" text-anchor="middle" style="font-size:12px;font-family:'Helvetica', 'Arial', sans-serif" x="27.0" y="27.0">`</text></g><g transform="translate(648, 168.75)"><rect style="fill:#ccc;stroke-width:1;stroke:#000" rx="5" width="54" height="54" /><rect style="fill:rgba(255,255,255,0.8);stroke-width:1;stroke:rgba(0,0,0,.1)" rx="5" x="6" y="3" width="42" height="42" /><text alignment-baseline="middle" text-anchor="middle" style="font-size:12px;font-family:'Helvetica', 'Arial', sans-serif" x="27.0" y="27.0">1</text></g><g transform="translate(702, 162)"><rect style="fill:#ccc;stroke-width:1;stroke:#000" rx="5" width="54" height="54" /><rect style="fill:rgba(255,255,255,0.8);stroke-width:1;stroke:rgba(0,0,0,.1)" rx="5" x="6" y="3" width="42" height="42" /><text alignment-baseline="middle" text-anchor="middle" style="font-size:12px;font-family:'Helvetica', 'Arial', sans-serif" x="27.0" y="27.0">2</text></g><g transform="translate(756, 168.75)"><rect style="fill:#ccc;stroke-width:1;stroke:#000" rx="5" width="54" height="54" /><rect style="fill:rgba(255,255,255,0.8);stroke-width:1;stroke:rgba(0,0,0,.1)" rx="5" x="6" y="3" width="42" height="42" /><text alignment-baseline="middle" text-anchor="middle" style="font-size:12px;font-family:'Helvetica', 'Arial', sans-serif" x="27.0" y="27.0">3</text></g><g transform="translate(810, 182.25)"><rect style="fill:#ccc;stroke-width:1;stroke:#000" rx="5" width="54" height="54" /></g><g transform="translate(864, 182.25)"><rect style="fill:#ccc;stroke-width:1;stroke:#000" rx="5" width="54" height="54" /></g><g transform="translate(0, 236.25)"><rect style="fill:#ccc;stroke-width:1;stroke:#000" rx="5" width="54" height="54" /></g><g transform="translate(54, 236.25)"><rect style="fill:#ccc;stroke-width:1;stroke:#000" rx="5" width="54" height="54" /></g><g transform="translate(108, 222.75)"><rect style="fill:#ccc;stroke-width:1;stroke:#000" rx="5" width="54" height="54" /></g><g transform="translate(162, 216)"><rect style="fill:#ccc;stroke-width:1;stroke:#000" rx="5" width="54" height="54" /></g><g transform="translate(216, 222.75)"><rect style="fill:#ccc;stroke-width:1;stroke:#000" rx="5" width="54" height="54" /></g><g transform="translate(270, 243.0)"><rect style="fill:#ccc;stroke-width:1;stroke:#000" rx="5" width="108" height="54" /></g><g transform="translate(540, 243.0)"><rect style="fill:#ccc;stroke-width:1;stroke:#000" rx="5" width="108" height="54" /></g><g transform="translate(648, 222.75)"><rect style="fill:#ccc;stroke-width:1;stroke:#000" rx="5" width="54" height="54" /></g><g transform="translate(702, 216)"><rect style="fill:#ccc;stroke-width:1;stroke:#000" rx="5" width="54" height="54" /></g><g transform="translate(756, 222.75)"><rect style="fill:#ccc;stroke-width:1;stroke:#000" rx="5" width="54" height="54" /></g><g transform="translate(810, 236.25)"><rect style="fill:#ccc;stroke-width:1;stroke:#000" rx="5" width="54" height="54" /></g><g transform="translate(864, 236.25)"><rect style="fill:#ccc;stroke-width:1;stroke:#000" rx="5" width="54" height="54" /></g><g transform="translate(270, 297.0)"><rect style="fill:#ccc;stroke-width:1;stroke:#000" rx="5" width="54" height="81.0" /></g><g transform="translate(324, 297.0)"><rect style="fill:#ccc;stroke-width:1;stroke:#000" rx="5" width="54" height="81.0" /></g><g transform="translate(378, 297.0)"><rect style="fill:#ccc;stroke-width:1;stroke:#000" rx="5" width="54" height="81.0" /></g><g transform="translate(486, 297.0)"><rect style="fill:#ccc;stroke-width:1;stroke:#000" rx="5" width="54" height="81.0" /></g><g transform="translate(540, 297.0)"><rect style="fill:#ccc;stroke-width:1;stroke:#000" rx="5" width="54" height="81.0" /></g><g transform="translate(594, 297.0)"><rect style="fill:#ccc;stroke-width:1;stroke:#000" rx="5" width="54" height="81.0" /></g></svg>
