<svg width="885" height="365.0" xmlns="http://www.w3.org/2000/svg">
  <g transform="translate(0, 19.5)">
    <rect style="fill:#ccc;stroke-width:1;stroke:#000" rx="5" width="52" height="52" />
    <rect style="fill:rgba(255,255,255,0.8);stroke-width:1;stroke:rgba(0,0,0,.1)" rx="5" x="6" y="3" width="40" height="40" />
    <text alignment-baseline="middle" text-anchor="middle" style="font-size:12px;font-family:'Helvetica', 'Arial', sans-serif" x="26.0" y="26.0">VRSN</text>
  </g>
  <g transform="translate(52, 19.5)">
    <rect style="fill:#ccc;stroke-width:1;stroke:#000" rx="5" width="52" height="52" />
    <rect style="fill:rgba(255,255,255,0.8);stroke-width:1;stroke:rgba(0,0,0,.1)" rx="5" x="6" y="3" width="40" height="40" />
    <text alignment-baseline="middle" text-anchor="middle" style="font-size:12px;font-family:'Helvetica', 'Arial', sans-serif" x="26.0" y="26.0">F1</text>
  </g>
  <g transform="translate(104, 6.5)">
    <rect style="fill:#ccc;stroke-width:1;stroke:#000" rx="5" width="52" height="52" />
    <rect style="fill:rgba(255,255,255,0.8);stroke-width:1;stroke:rgba(0,0,0,.1)" rx="5" x="6" y="3" width="40" height="40" />
    <text alignment-baseline="middle" text-anchor="middle" style="font-size:12px;font-family:'Helvetica', 'Arial', sans-serif" x="26.0" y="26.0">F2</text>
  </g>
  <g transform="translate(156, 0)">
    <rect style="fill:#ccc;stroke-width:1;stroke:#000" rx="5" width="52" height="52" />
    <rect style="fill:rgba(255,255,255,0.8);stroke-width:1;stroke:rgba(0,0,0,.1)" rx="5" x="6" y="3" width="40" height="40" />
    <text alignment-baseline="middle" text-anchor="middle" style="font-size:12px;font-family:'Helvetica', 'Arial', sans-serif" x="26.0" y="26.0">F3</text>
  </g>
  <g transform="translate(208, 6.5)">
    <rect style="fill:#ccc;stroke-width:1;stroke:#000" rx="5" width="52" height="52" />
    <rect style="fill:rgba(255,255,255,0.8);stroke-width:1;stroke:rgba(0,0,0,.1)" rx="5" x="6" y="3" width="40" height="40" />
    <text alignment-baseline="middle" text-anchor="middle" style="font-size:12px;font-family:'Helvetica', 'Arial', sans-serif" x="26.0" y="26.0">F4</text>
  </g>
  <g transform="translate(260, 13.0)">
    <rect style="fill:#ccc;stroke-width:1;stroke:#000" rx="5" width="52" height="52" />
    <rect style="fill:rgba(255,255,255,0.8);stroke-width:1;stroke:rgba(0,0,0,.1)" rx="5" x="6" y="3" width="40" height="40" />
    <text alignment-baseline="middle" text-anchor="middle" style="font-size:12px;font-family:'Helvetica', 'Arial', sans-serif" x="26.0" y="26.0">F5</text>
  </g>
  <g transform="translate(312, 13.0)">
    <rect style="fill:#ccc;stroke-width:1;stroke:#000" rx="5" width="52" height="52" />
    <rect style="fill:rgba(255,255,255,0.8);stroke-width:1;stroke:rgba(0,0,0,.1)" rx="5" x="6" y="3" width="40" height="40" />
    <text alignment-baseline="middle" text-anchor="middle" style="font-size:12px;font-family:'Helvetica', 'Arial', sans-serif" x="26.0" y="26.0">F6</text>
  </g>
  <g transform="translate(520, 13.0)">
    <rect style="fill:#ccc;stroke-width:1;stroke:#000" rx="5" width="52" height="52" />
    <rect style="fill:rgba(255,255,255,0.8);stroke-width:1;stroke:rgba(0,0,0,.1)" rx="5" x="6" y="3" width="40" height="40" />
    <text alignment-baseline="middle" text-anchor="middle" style="font-size:12px;font-family:'Helvetica', 'Arial', sans-serif" x="26.0" y="26.0">F7</text>
  </g>
  <g transform="translate(572, 13.0)">
    <rect style="fill:#ccc;stroke-width:1;stroke:#000" rx="5" width="52" height="52" />
    <rect style="fill:rgba(255,255,255,0.8);stroke-width:1;stroke:rgba(0,0,0,.1)" rx="5" x="6" y="3" width="40" height="40" />
    <text alignment-baseline="middle" text-anchor="middle" style="font-size:12px;font-family:'Helvetica', 'Arial', sans-serif" x="26.0" y="26.0">F8</text>
  </g>
  <g transform="translate(624, 6.5)">
    <rect style="fill:#ccc;stroke-width:1;stroke:#000" rx="5" width="52" height="52" />
    <rect style="fill:rgba(255,255,255,0.8);stroke-width:1;stroke:rgba(0,0,0,.1)" rx="5" x="6" y="3" width="40" height="40" />
    <text alignment-baseline="middle" text-anchor="middle" style="font-size:12px;font-family:'Helvetica', 'Arial', sans-serif" x="26.0" y="26.0">F9</text>
  </g>
  <g transform="translate(676, 0)">
    <rect style="fill:#ccc;stroke-width:1;stroke:#000" rx="5" width="52" height="52" />
    <rect style="fill:rgba(255,255,255,0.8);stroke-width:1;stroke:rgba(0,0,0,.1)" rx="5" x="6" y="3" width="40" height="40" />
    <text alignment-baseline="middle" text-anchor="middle" style="font-size:12px;font-family:'Helvetica', 'Arial', sans-serif" x="26.0" y="26.0">F10</text>
  </g>
  <g transform="translate(728, 6.5)">
    <rect style="fill:#ccc;stroke-width:1;stroke:#000" rx="5" width="52" height="52" />
    <rect style="fill:rgba(255,255,255,0.8);stroke-width:1;stroke:rgba(0,0,0,.1)" rx="5" x="6" y="3" width="40" height="40" />
    <text alignment-baseline="middle" text-anchor="middle" style="font-size:12px;font-family:'Helvetica', 'Arial', sans-serif" x="26.0" y="26.0">F11</text>
  </g>
  <g transform="translate(780, 19.5)">
    <rect style="fill:#ccc;stroke-width:1;stroke:#000" rx="5" width="52" height="52" />
    <rect style="fill:rgba(255,255,255,0.8);stroke-width:1;stroke:rgba(0,0,0,.1)" rx="5" x="6" y="3" width="40" height="40" />
    <text alignment-baseline="middle" text-anchor="middle" style="font-size:12px;font-family:'Helvetica', 'Arial', sans-serif" x="26.0" y="26.0">F12</text>
  </g>
  <g transform="translate(832, 19.5)">
    <rect style="fill:#ccc;stroke-width:1;stroke:#000" rx="5" width="52" height="52" />
  </g>
  <g transform="translate(0, 71.5)">
    <rect style="fill:#ccc;stroke-width:1;stroke:#000" rx="5" width="52" height="52" />
  </g>
  <g transform="translate(52, 71.5)">
    <rect style="fill:#ccc;stroke-width:1;stroke:#000" rx="5" width="52" height="52" />
  </g>
  <g transform="translate(104, 58.5)">
    <rect style="fill:#ccc;stroke-width:1;stroke:#000" rx="5" width="52" height="52" />
    <rect style="fill:rgba(255,255,255,0.8);stroke-width:1;stroke:rgba(0,0,0,.1)" rx="5" x="6" y="3" width="40" height="40" />
    <text alignment-baseline="middle" text-anchor="middle" style="font-size:12px;font-family:'Helvetica', 'Arial', sans-serif" x="26.0" y="26.0">-</text>
  </g>
  <g transform="translate(156, 52)">
    <rect style="fill:#ccc;stroke-width:1;stroke:#000" rx="5" width="52" height="52" />
    <rect style="fill:rgba(255,255,255,0.8);stroke-width:1;stroke:rgba(0,0,0,.1)" rx="5" x="6" y="3" width="40" height="40" />
    <text alignment-baseline="middle" text-anchor="middle" style="font-size:12px;font-family:'Helvetica', 'Arial', sans-serif" x="26.0" y="26.0">{</text>
  </g>
  <g transform="translate(208, 58.5)">
    <rect style="fill:#ccc;stroke-width:1;stroke:#000" rx="5" width="52" height="52" />
    <rect style="fill:rgba(255,255,255,0.8);stroke-width:1;stroke:rgba(0,0,0,.1)" rx="5" x="6" y="3" width="40" height="40" />
    <text alignment-baseline="middle" text-anchor="middle" style="font-size:12px;font-family:'Helvetica', 'Arial', sans-serif" x="26.0" y="26.0">}</text>
  </g>
  <g transform="translate(260, 65.0)">
    <rect style="fill:#ccc;stroke-width:1;stroke:#000" rx="5" width="52" height="52" />
    <rect style="fill:rgba(255,255,255,0.8);stroke-width:1;stroke:rgba(0,0,0,.1)" rx="5" x="6" y="3" width="40" height="40" />
    <text alignment-baseline="middle" text-anchor="middle" style="font-size:12px;font-family:'Helvetica', 'Arial', sans-serif" x="26.0" y="26.0">|</text>
  </g>
  <g transform="translate(312, 65.0)">
    <rect style="fill:#ccc;stroke-width:1;stroke:#000" rx="5" width="52" height="52" />
  </g>
  <g transform="translate(520, 65.0)">
    <rect style="fill:#ccc;stroke-width:1;stroke:#000" rx="5" width="52" height="52" />
  </g>
  <g transform="translate(572, 65.0)">
    <rect style="fill:#ccc;stroke-width:1;stroke:#000" rx="5" width="52" height="52" />
    <rect style="fill:rgba(255,255,255,0.8);stroke-width:1;stroke:rgba(0,0,0,.1)" rx="5" x="6" y="3" width="40" height="40" />
    <text alignment-baseline="middle" text-anchor="middle" style="font-size:12px;font-family:'Helvetica', 'Arial', sans-serif" x="26.0" y="26.0">"</text>
  </g>
  <g transform="translate(624, 58.5)">
    <rect style="fill:#ccc;stroke-width:1;stroke:#000" rx="5" width="52" height="52" />
    <rect style="fill:rgba(255,255,255,0.8);stroke-width:1;stroke:rgba(0,0,0,.1)" rx="5" x="6" y="3" width="40" height="40" />
    <text alignment-baseline="middle" text-anchor="middle" style="font-size:12px;font-family:'Helvetica', 'Arial', sans-serif" x="26.0" y="26.0">7</text>
  </g>
  <g transform="translate(676, 52)">
    <rect style="fill:#ccc;stroke-width:1;stroke:#000" rx="5" width="52" height="52" />
    <rect style="fill:rgba(255,255,255,0.8);stroke-width:1;stroke:rgba(0,0,0,.1)" rx="5" x="6" y="3" width="40" height="40" />
    <text alignment-baseline="middle" text-anchor="middle" style="font-size:12px;font-family:'Helvetica', 'Arial', sans-serif" x="26.0" y="26.0">8</text>
  </g>
  <g transform="translate(728, 58.5)">
    <rect style="fill:#ccc;stroke-width:1;stroke:#000" rx="5" width="52" height="52" />
    <rect style="fill:rgba(255,255,255,0.8);stroke-width:1;stroke:rgba(0,0,0,.1)" rx="5" x="6" y="3" width="40" height="40" />
    <text alignment-baseline="middle" text-anchor="middle" style="font-size:12px;font-family:'Helvetica', 'Arial', sans-serif" x="26.0" y="26.0">9</text>
  </g>
  <g transform="translate(780, 71.5)">
    <rect style="fill:#ccc;stroke-width:1;stroke:#000" rx="5" width="52" height="52" />
  </g>
  <g transform="translate(832, 71.5)">
    <rect style="fill:#ccc;stroke-width:1;stroke:#000" rx="5" width="52" height="52" />
  </g>
  <g transform="translate(0, 123.5)">
    <rect style="fill:#ccc;stroke-width:1;stroke:#000" rx="5" width="52" height="52" />
  </g>
  <g transform="translate(52, 123.5)">
    <rect style="fill:#ccc;stroke-width:1;stroke:#000" rx="5" width="52" height="52" />
    <rect style="fill:rgba(255,255,255,0.8);stroke-width:1;stroke:rgba(0,0,0,.1)" rx="5" x="6" y="3" width="40" height="40" />
    <text alignment-baseline="middle" text-anchor="middle" style="font-size:12px;font-family:'Helvetica', 'Arial', sans-serif" x="26.0" y="26.0">=</text>
  </g>
  <g transform="translate(104, 110.5)">
    <rect style="fill:#ccc;stroke-width:1;stroke:#000" rx="5" width="52" height="52" />
    <rect style="fill:rgba(255,255,255,0.8);stroke-width:1;stroke:rgba(0,0,0,.1)" rx="5" x="6" y="3" width="40" height="40" />
    <text alignment-baseline="middle" text-anchor="middle" style="font-size:12px;font-family:'Helvetica', 'Arial', sans-serif" x="26.0" y="26.0">_</text>
  </g>
  <g transform="translate(156, 104)">
    <rect style="fill:#ccc;stroke-width:1;stroke:#000" rx="5" width="52" height="52" />
    <rect style="fill:rgba(255,255,255,0.8);stroke-width:1;stroke:rgba(0,0,0,.1)" rx="5" x="6" y="3" width="40" height="40" />
    <text alignment-baseline="middle" text-anchor="middle" style="font-size:12px;font-family:'Helvetica', 'Arial', sans-serif" x="26.0" y="26.0">(</text>
  </g>
  <g transform="translate(208, 110.5)">
    <rect style="fill:#ccc;stroke-width:1;stroke:#000" rx="5" width="52" height="52" />
    <rect style="fill:rgba(255,255,255,0.8);stroke-width:1;stroke:rgba(0,0,0,.1)" rx="5" x="6" y="3" width="40" height="40" />
    <text alignment-baseline="middle" text-anchor="middle" style="font-size:12px;font-family:'Helvetica', 'Arial', sans-serif" x="26.0" y="26.0">)</text>
  </g>
  <g transform="translate(260, 117.0)">
    <rect style="fill:#ccc;stroke-width:1;stroke:#000" rx="5" width="52" height="52" />
    <rect style="fill:rgba(255,255,255,0.8);stroke-width:1;stroke:rgba(0,0,0,.1)" rx="5" x="6" y="3" width="40" height="40" />
    <text alignment-baseline="middle" text-anchor="middle" style="font-size:12px;font-family:'Helvetica', 'Arial', sans-serif" x="26.0" y="26.0">+</text>
  </g>
  <g transform="translate(312, 117.0)">
    <rect style="fill:#ccc;stroke-width:1;stroke:#000" rx="5" width="52" height="52" />
  </g>
  <g transform="translate(520, 117.0)">
    <rect style="fill:#ccc;stroke-width:1;stroke:#000" rx="5" width="52" height="52" />
  </g>
  <g transform="translate(572, 117.0)">
    <rect style="fill:#ccc;stroke-width:1;stroke:#000" rx="5" width="52" height="52" />
    <rect style="fill:rgba(255,255,255,0.8);stroke-width:1;stroke:rgba(0,0,0,.1)" rx="5" x="6" y="3" width="40" height="40" />
    <text alignment-baseline="middle" text-anchor="middle" style="font-size:12px;font-family:'Helvetica', 'Arial', sans-serif" x="26.0" y="26.0">'</text>
  </g>
  <g transform="translate(624, 110.5)">
    <rect style="fill:#ccc;stroke-width:1;stroke:#000" rx="5" width="52" height="52" />
    <rect style="fill:rgba(255,255,255,0.8);stroke-width:1;stroke:rgba(0,0,0,.1)" rx="5" x="6" y="3" width="40" height="40" />
    <text alignment-baseline="middle" text-anchor="middle" style="font-size:12px;font-family:'Helvetica', 'Arial', sans-serif" x="26.0" y="26.0">4</text>
  </g>
  <g transform="translate(676, 104)">
    <rect style="fill:#ccc;stroke-width:1;stroke:#000" rx="5" width="52" height="52" />
    <rect style="fill:rgba(255,255,255,0.8);stroke-width:1;stroke:rgba(0,0,0,.1)" rx="5" x="6" y="3" width="40" height="40" />
    <text alignment-baseline="middle" text-anchor="middle" style="font-size:12px;font-family:'Helvetica', 'Arial', sans-serif" x="26.0" y="26.0">5</text>
  </g>
  <g transform="translate(728, 110.5)">
    <rect style="fill:#ccc;stroke-width:1;stroke:#000" rx="5" width="52" height="52" />
    <rect style="fill:rgba(255,255,255,0.8);stroke-width:1;stroke:rgba(0,0,0,.1)" rx="5" x="6" y="3" width="40" height="40" />
    <text alignment-baseline="middle" text-anchor="middle" style="font-size:12px;font-family:'Helvetica', 'Arial', sans-serif" x="26.0" y="26.0">6</text>
  </g>
  <g transform="translate(780, 123.5)">
    <rect style="fill:#ccc;stroke-width:1;stroke:#000" rx="5" width="52" height="52" />
    <rect style="fill:rgba(255,255,255,0.8);stroke-width:1;stroke:rgba(0,0,0,.1)" rx="5" x="6" y="3" width="40" height="40" />
    <text alignment-baseline="middle" text-anchor="middle" style="font-size:12px;font-family:'Helvetica', 'Arial', sans-serif" x="26.0" y="26.0">0</text>
  </g>
  <g transform="translate(832, 123.5)">
    <rect style="fill:#ccc;stroke-width:1;stroke:#000" rx="5" width="52" height="52" />
  </g>
  <g transform="translate(0, 175.5)">
    <rect style="fill:#ccc;stroke-width:1;stroke:#000" rx="5" width="52" height="52" />
  </g>
  <g transform="translate(52, 175.5)">
    <rect style="fill:#ccc;stroke-width:1;stroke:#000" rx="5" width="52" height="52" />
  </g>
  <g transform="translate(104, 162.5)">
    <rect style="fill:#ccc;stroke-width:1;stroke:#000" rx="5" width="52" height="52" />
    <rect style="fill:rgba(255,255,255,0.8);stroke-width:1;stroke:rgba(0,0,0,.1)" rx="5" x="6" y="3" width="40" height="40" />
    <text alignment-baseline="middle" text-anchor="middle" style="font-size:12px;font-family:'Helvetica', 'Arial', sans-serif" x="26.0" y="26.0">\</text>
  </g>
  <g transform="translate(156, 156)">
    <rect style="fill:#ccc;stroke-width:1;stroke:#000" rx="5" width="52" height="52" />
    <rect style="fill:rgba(255,255,255,0.8);stroke-width:1;stroke:rgba(0,0,0,.1)" rx="5" x="6" y="3" width="40" height="40" />
    <text alignment-baseline="middle" text-anchor="middle" style="font-size:12px;font-family:'Helvetica', 'Arial', sans-serif" x="26.0" y="26.0">[</text>
  </g>
  <g transform="translate(208, 162.5)">
    <rect style="fill:#ccc;stroke-width:1;stroke:#000" rx="5" width="52" height="52" />
    <rect style="fill:rgba(255,255,255,0.8);stroke-width:1;stroke:rgba(0,0,0,.1)" rx="5" x="6" y="3" width="40" height="40" />
    <text alignment-baseline="middle" text-anchor="middle" style="font-size:12px;font-family:'Helvetica', 'Arial', sans-serif" x="26.0" y="26.0">]</text>
  </g>
  <g transform="translate(260, 169.0)">
    <rect style="fill:#ccc;stroke-width:1;stroke:#000" rx="5" width="52" height="52" />
    <rect style="fill:rgba(255,255,255,0.8);stroke-width:1;stroke:rgba(0,0,0,.1)" rx="5" x="6" y="3" width="40" height="40" />
    <text alignment-baseline="middle" text-anchor="middle" style="font-size:12px;font-family:'Helvetica', 'Arial', sans-serif" x="26.0" y="26.0">~</text>
  </g>
  <g transform="translate(572, 169.0)">
    <rect style="fill:#ccc;stroke-width:1;stroke:#000" rx="5" width="52" height="52" />
    <rect style="fill:rgba(255,255,255,0.8);stroke-width:1;stroke:rgba(0,0,0,.1)" rx="5" x="6" y="3" width="40" height="40" />
    <text alignment-baseline="middle" text-anchor="middle" style="font-size:12px;font-family:'Helvetica', 'Arial', sans-serif" x="26.0" y="26.0">`</text>
  </g>
  <g transform="translate(624, 162.5)">
    <rect style="fill:#ccc;stroke-width:1;stroke:#000" rx="5" width="52" height="52" />
    <rect style="fill:rgba(255,255,255,0.8);stroke-width:1;stroke:rgba(0,0,0,.1)" rx="5" x="6" y="3" width="40" height="40" />
    <text alignment-baseline="middle" text-anchor="middle" style="font-size:12px;font-family:'Helvetica', 'Arial', sans-serif" x="26.0" y="26.0">1</text>
  </g>
  <g transform="translate(676, 156)">
    <rect style="fill:#ccc;stroke-width:1;stroke:#000" rx="5" width="52" height="52" />
    <rect style="fill:rgba(255,255,255,0.8);stroke-width:1;stroke:rgba(0,0,0,.1)" rx="5" x="6" y="3" width="40" height="40" />
    <text alignment-baseline="middle" text-anchor="middle" style="font-size:12px;font-family:'Helvetica', 'Arial', sans-serif" x="26.0" y="26.0">2</text>
  </g>
  <g transform="translate(728, 162.5)">
    <rect style="fill:#ccc;stroke-width:1;stroke:#000" rx="5" width="52" height="52" />
    <rect style="fill:rgba(255,255,255,0.8);stroke-width:1;stroke:rgba(0,0,0,.1)" rx="5" x="6" y="3" width="40" height="40" />
    <text alignment-baseline="middle" text-anchor="middle" style="font-size:12px;font-family:'Helvetica', 'Arial', sans-serif" x="26.0" y="26.0">3</text>
  </g>
  <g transform="translate(780, 175.5)">
    <rect style="fill:#ccc;stroke-width:1;stroke:#000" rx="5" width="52" height="52" />
  </g>
  <g transform="translate(832, 175.5)">
    <rect style="fill:#ccc;stroke-width:1;stroke:#000" rx="5" width="52" height="52" />
  </g>
  <g transform="translate(0, 227.5)">
    <rect style="fill:#ccc;stroke-width:1;stroke:#000" rx="5" width="52" height="52" />
  </g>
  <g transform="translate(52, 227.5)">
    <rect style="fill:#ccc;stroke-width:1;stroke:#000" rx="5" width="52" height="52" />
  </g>
  <g transform="translate(104, 214.5)">
    <rect style="fill:#ccc;stroke-width:1;stroke:#000" rx="5" width="52" height="52" />
  </g>
  <g transform="translate(156, 208)">
    <rect style="fill:#ccc;stroke-width:1;stroke:#000" rx="5" width="52" height="52" />
  </g>
  <g transform="translate(208, 214.5)">
    <rect style="fill:#ccc;stroke-width:1;stroke:#000" rx="5" width="52" height="52" />
  </g>
  <g transform="translate(260, 234.0)">
    <rect style="fill:#ccc;stroke-width:1;stroke:#000" rx="5" width="104" height="52" />
  </g>
  <g transform="translate(520, 234.0)">
    <rect style="fill:#ccc;stroke-width:1;stroke:#000" rx="5" width="104" height="52" />
  </g>
  <g transform="translate(624, 214.5)">
    <rect style="fill:#ccc;stroke-width:1;stroke:#000" rx="5" width="52" height="52" />
  </g>
  <g transform="translate(676, 208)">
    <rect style="fill:#ccc;stroke-width:1;stroke:#000" rx="5" width="52" height="52" />
  </g>
  <g transform="translate(728, 214.5)">
    <rect style="fill:#ccc;stroke-width:1;stroke:#000" rx="5" width="52" height="52" />
  </g>
  <g transform="translate(780, 227.5)">
    <rect style="fill:#ccc;stroke-width:1;stroke:#000" rx="5" width="52" height="52" />
  </g>
  <g transform="translate(832, 227.5)">
    <rect style="fill:#ccc;stroke-width:1;stroke:#000" rx="5" width="52" height="52" />
  </g>
  <g transform="translate(260, 286.0)">
    <rect style="fill:#ccc;stroke-width:1;stroke:#000" rx="5" width="52" height="78.0" />
  </g>
  <g transform="translate(312, 286.0)">
    <rect style="fill:#ccc;stroke-width:1;stroke:#000" rx="5" width="52" height="78.0" />
  </g>
  <g transform="translate(364, 286.0)">
    <rect style="fill:#ccc;stroke-width:1;stroke:#000" rx="5" width="52" height="78.0" />
  </g>
  <g transform="translate(468, 286.0)">
    <rect style="fill:#ccc;stroke-width:1;stroke:#000" rx="5" width="52" height="78.0" />
  </g>
  <g transform="translate(520, 286.0)">
    <rect style="fill:#ccc;stroke-width:1;stroke:#000" rx="5" width="52" height="78.0" />
  </g>
  <g transform="translate(572, 286.0)">
    <rect style="fill:#ccc;stroke-width:1;stroke:#000" rx="5" width="52" height="78.0" />
  </g>
</svg>
